M48
;GenerationSoftware,Autodesk,EAGLE,9.6.1*%
;CreationDate,2020-06-22T05:55:07Z*%
FMAT,2
ICI,OFF
METRIC,TZ,000.000
T2C0.400
T1C3.302
%
G90
M71
T1
X85725Y10160
X3810Y10160
T2
X73660Y12700
X53975Y12700
X26035Y12700
X60960Y12700
X46355Y12700
X81280Y12700
X19050Y3175
X46990Y3175
X57150Y3175
X59690Y3175
X67310Y3175
X77470Y3175
X80010Y3175
X13970Y3175
X16510Y3175
X49530Y3175
X42545Y12700
X52705Y15240
X62230Y15240
X72390Y3175
X64770Y3175
X8890Y3175
X21590Y3175
X24130Y3175
X31750Y3175
X34290Y3175
X36830Y3175
X39370Y3175
X54610Y3175
X65405Y12700
X74930Y3175
X62230Y3175
X44450Y3175
X41910Y3175
X52070Y3175
X26670Y3175
X29210Y3175
X69850Y3175
X11430Y3175
X34925Y15240
X24765Y15240
X16510Y7620
X19685Y9525
X80010Y15240
X29210Y12700
X57785Y12700
X29210Y6985
X60960Y6985
X81280Y2540
X7620Y2540
X8255Y10160
X26035Y10160
X63500Y10160
X53975Y10160
X81280Y10160
X36195Y10160
X78740Y2540
X74930Y14605
X47625Y13970
X76200Y2540
X73660Y2540
X68580Y5715
X41275Y5715
X13335Y5715
X71120Y2540
X67310Y8890
X40005Y8890
X12065Y8890
X68580Y2540
X75565Y5080
X66040Y2540
X66040Y4445
X38735Y5080
X10795Y5715
X63500Y2540
X9525Y11430
X37465Y11430
X64770Y11430
X58420Y2540
X76200Y15875
X59055Y15240
X55880Y2540
X8255Y17145
X34290Y17145
X61595Y17145
X53340Y2540
X9525Y17780
X35560Y17780
X62865Y17780
X55880Y17780
X50800Y2540
X77470Y13970
X50800Y13335
X48260Y2540
X10795Y18415
X36830Y18415
X64135Y18415
X50800Y18415
X45720Y2540
X12065Y19050
X38100Y19050
X65405Y19050
X43180Y2540
X49530Y4445
X40640Y2540
X13335Y19685
X39370Y19685
X66675Y19685
X44450Y4445
X38100Y2540
X18415Y16510
X60960Y2540
X71120Y16510
X33020Y16510
X35560Y2540
X69850Y6350
X43180Y6350
X18415Y6350
X34290Y6350
X33020Y2540
X48895Y6985
X33020Y6985
X30480Y2540
X74930Y9525
X47625Y9525
X22225Y9525
X32385Y9525
X25400Y2540
X48895Y15875
X43815Y16510
X22860Y2540
X25400Y8255
X45085Y8255
X72390Y8255
X20320Y2540
X50165Y15240
X22860Y12700
X17780Y2540
X20955Y10795
X73660Y10795
X15240Y2540
X17145Y10795
X46355Y10795
X12700Y2540
X10160Y2540
X21590Y4445
X27940Y2540
X27940Y14605
M30