G04 EAGLE Gerber RS-274X export*
G75*
%MOMM*%
%FSLAX34Y34*%
%LPD*%
%IN*%
%IPPOS*%
%AMOC8*
5,1,8,0,0,1.08239X$1,22.5*%
G01*
%ADD10C,0.254000*%


D10*
X0Y0D02*
X869950Y0D01*
X869950Y48810D01*
X870022Y50105D01*
X870207Y51389D01*
X870503Y52653D01*
X870908Y53885D01*
X871419Y55077D01*
X872032Y56221D01*
X872742Y57307D01*
X873545Y58326D01*
X874433Y59272D01*
X875400Y60137D01*
X876438Y60914D01*
X877541Y61598D01*
X878699Y62183D01*
X879903Y62665D01*
X881145Y63040D01*
X882415Y63305D01*
X883703Y63459D01*
X885000Y63500D01*
X889000Y63500D01*
X889000Y203200D01*
X0Y203200D01*
X0Y0D01*
X54610Y101060D02*
X54539Y99981D01*
X54398Y98909D01*
X54187Y97849D01*
X53908Y96805D01*
X53560Y95781D01*
X53146Y94783D01*
X52668Y93813D01*
X52128Y92877D01*
X51527Y91978D01*
X50869Y91121D01*
X50157Y90308D01*
X49392Y89544D01*
X48579Y88831D01*
X47722Y88173D01*
X46823Y87572D01*
X45887Y87032D01*
X44917Y86554D01*
X43919Y86140D01*
X42895Y85792D01*
X41851Y85513D01*
X40791Y85302D01*
X39719Y85161D01*
X38640Y85090D01*
X37560Y85090D01*
X36481Y85161D01*
X35409Y85302D01*
X34349Y85513D01*
X33305Y85792D01*
X32281Y86140D01*
X31283Y86554D01*
X30313Y87032D01*
X29377Y87572D01*
X28478Y88173D01*
X27621Y88831D01*
X26808Y89544D01*
X26044Y90308D01*
X25331Y91121D01*
X24673Y91978D01*
X24072Y92877D01*
X23532Y93813D01*
X23054Y94783D01*
X22640Y95781D01*
X22292Y96805D01*
X22013Y97849D01*
X21802Y98909D01*
X21661Y99981D01*
X21590Y101060D01*
X21590Y102140D01*
X21661Y103219D01*
X21802Y104291D01*
X22013Y105351D01*
X22292Y106395D01*
X22640Y107419D01*
X23054Y108417D01*
X23532Y109387D01*
X24072Y110323D01*
X24673Y111222D01*
X25331Y112079D01*
X26044Y112892D01*
X26808Y113657D01*
X27621Y114369D01*
X28478Y115027D01*
X29377Y115628D01*
X30313Y116168D01*
X31283Y116646D01*
X32281Y117060D01*
X33305Y117408D01*
X34349Y117687D01*
X35409Y117898D01*
X36481Y118039D01*
X37560Y118110D01*
X38640Y118110D01*
X39719Y118039D01*
X40791Y117898D01*
X41851Y117687D01*
X42895Y117408D01*
X43919Y117060D01*
X44917Y116646D01*
X45887Y116168D01*
X46823Y115628D01*
X47722Y115027D01*
X48579Y114369D01*
X49392Y113657D01*
X50157Y112892D01*
X50869Y112079D01*
X51527Y111222D01*
X52128Y110323D01*
X52668Y109387D01*
X53146Y108417D01*
X53560Y107419D01*
X53908Y106395D01*
X54187Y105351D01*
X54398Y104291D01*
X54539Y103219D01*
X54610Y102140D01*
X54610Y101060D01*
X873760Y101060D02*
X873689Y99981D01*
X873548Y98909D01*
X873337Y97849D01*
X873058Y96805D01*
X872710Y95781D01*
X872296Y94783D01*
X871818Y93813D01*
X871278Y92877D01*
X870677Y91978D01*
X870019Y91121D01*
X869307Y90308D01*
X868542Y89544D01*
X867729Y88831D01*
X866872Y88173D01*
X865973Y87572D01*
X865037Y87032D01*
X864067Y86554D01*
X863069Y86140D01*
X862045Y85792D01*
X861001Y85513D01*
X859941Y85302D01*
X858869Y85161D01*
X857790Y85090D01*
X856710Y85090D01*
X855631Y85161D01*
X854559Y85302D01*
X853499Y85513D01*
X852455Y85792D01*
X851431Y86140D01*
X850433Y86554D01*
X849463Y87032D01*
X848527Y87572D01*
X847628Y88173D01*
X846771Y88831D01*
X845958Y89544D01*
X845194Y90308D01*
X844481Y91121D01*
X843823Y91978D01*
X843222Y92877D01*
X842682Y93813D01*
X842204Y94783D01*
X841790Y95781D01*
X841442Y96805D01*
X841163Y97849D01*
X840952Y98909D01*
X840811Y99981D01*
X840740Y101060D01*
X840740Y102140D01*
X840811Y103219D01*
X840952Y104291D01*
X841163Y105351D01*
X841442Y106395D01*
X841790Y107419D01*
X842204Y108417D01*
X842682Y109387D01*
X843222Y110323D01*
X843823Y111222D01*
X844481Y112079D01*
X845194Y112892D01*
X845958Y113657D01*
X846771Y114369D01*
X847628Y115027D01*
X848527Y115628D01*
X849463Y116168D01*
X850433Y116646D01*
X851431Y117060D01*
X852455Y117408D01*
X853499Y117687D01*
X854559Y117898D01*
X855631Y118039D01*
X856710Y118110D01*
X857790Y118110D01*
X858869Y118039D01*
X859941Y117898D01*
X861001Y117687D01*
X862045Y117408D01*
X863069Y117060D01*
X864067Y116646D01*
X865037Y116168D01*
X865973Y115628D01*
X866872Y115027D01*
X867729Y114369D01*
X868542Y113657D01*
X869307Y112892D01*
X870019Y112079D01*
X870677Y111222D01*
X871278Y110323D01*
X871818Y109387D01*
X872296Y108417D01*
X872710Y107419D01*
X873058Y106395D01*
X873337Y105351D01*
X873548Y104291D01*
X873689Y103219D01*
X873760Y102140D01*
X873760Y101060D01*
M02*
