G04 EAGLE Gerber RS-274X export*
G75*
%MOMM*%
%FSLAX34Y34*%
%LPD*%
%INSilkscreen Bottom*%
%IPPOS*%
%AMOC8*
5,1,8,0,0,1.08239X$1,22.5*%
G01*
%ADD10C,0.177800*%
%ADD11C,0.152400*%

G36*
X47147Y172147D02*
X47147Y172147D01*
X47168Y172159D01*
X47201Y172165D01*
X47274Y172211D01*
X47282Y172222D01*
X47297Y172229D01*
X49847Y174780D01*
X49850Y174785D01*
X49852Y174786D01*
X49855Y174794D01*
X49865Y174802D01*
X49911Y174876D01*
X49915Y174900D01*
X49929Y174930D01*
X49937Y175016D01*
X49930Y175039D01*
X49930Y175072D01*
X49899Y175153D01*
X49889Y175163D01*
X49886Y175179D01*
X47874Y178151D01*
X47859Y178195D01*
X47865Y178241D01*
X49081Y181177D01*
X49109Y181214D01*
X49151Y181234D01*
X52675Y181914D01*
X52687Y181921D01*
X52703Y181922D01*
X52782Y181958D01*
X52798Y181976D01*
X52827Y181992D01*
X52882Y182059D01*
X52889Y182082D01*
X52907Y182110D01*
X52927Y182194D01*
X52925Y182207D01*
X52926Y182208D01*
X52925Y182209D01*
X52930Y182223D01*
X52930Y185830D01*
X52925Y185842D01*
X52927Y185858D01*
X52907Y185943D01*
X52893Y185963D01*
X52882Y185994D01*
X52827Y186061D01*
X52805Y186072D01*
X52782Y186095D01*
X52703Y186131D01*
X52689Y186131D01*
X52675Y186139D01*
X49151Y186819D01*
X49109Y186839D01*
X49081Y186876D01*
X47865Y189812D01*
X47859Y189858D01*
X47874Y189901D01*
X49886Y192874D01*
X49888Y192887D01*
X49899Y192899D01*
X49930Y192981D01*
X49929Y193005D01*
X49930Y193011D01*
X49933Y193018D01*
X49933Y193019D01*
X49937Y193037D01*
X49929Y193123D01*
X49917Y193145D01*
X49911Y193177D01*
X49865Y193251D01*
X49854Y193259D01*
X49847Y193273D01*
X47297Y195824D01*
X47284Y195829D01*
X47274Y195842D01*
X47201Y195887D01*
X47176Y195891D01*
X47147Y195905D01*
X47060Y195914D01*
X47037Y195906D01*
X47004Y195906D01*
X46923Y195875D01*
X46913Y195866D01*
X46898Y195862D01*
X43925Y193851D01*
X43882Y193835D01*
X43836Y193842D01*
X40899Y195058D01*
X40862Y195086D01*
X40843Y195128D01*
X40163Y198652D01*
X40155Y198663D01*
X40154Y198679D01*
X40119Y198758D01*
X40101Y198775D01*
X40084Y198803D01*
X40017Y198859D01*
X39994Y198866D01*
X39967Y198884D01*
X39882Y198904D01*
X39869Y198901D01*
X39854Y198907D01*
X36246Y198907D01*
X36234Y198902D01*
X36218Y198904D01*
X36133Y198884D01*
X36114Y198869D01*
X36083Y198859D01*
X36016Y198803D01*
X36005Y198782D01*
X35981Y198758D01*
X35946Y198679D01*
X35946Y198665D01*
X35937Y198652D01*
X35257Y195128D01*
X35238Y195086D01*
X35200Y195058D01*
X32265Y193842D01*
X32219Y193835D01*
X32175Y193851D01*
X29202Y195862D01*
X29189Y195864D01*
X29177Y195875D01*
X29096Y195906D01*
X29071Y195905D01*
X29040Y195914D01*
X28953Y195905D01*
X28932Y195894D01*
X28900Y195887D01*
X28826Y195842D01*
X28819Y195833D01*
X28817Y195832D01*
X28817Y195830D01*
X28803Y195824D01*
X27445Y194465D01*
X27320Y194341D01*
X27196Y194217D01*
X27072Y194092D01*
X26948Y193968D01*
X26823Y193844D01*
X26699Y193720D01*
X26575Y193595D01*
X26451Y193471D01*
X26326Y193347D01*
X26253Y193273D01*
X26248Y193260D01*
X26235Y193251D01*
X26189Y193177D01*
X26185Y193153D01*
X26171Y193123D01*
X26163Y193037D01*
X26170Y193014D01*
X26167Y193007D01*
X26170Y193000D01*
X26170Y192981D01*
X26201Y192899D01*
X26211Y192890D01*
X26214Y192874D01*
X28226Y189901D01*
X28241Y189858D01*
X28235Y189812D01*
X27019Y186876D01*
X26991Y186839D01*
X26949Y186819D01*
X23425Y186139D01*
X23413Y186132D01*
X23397Y186131D01*
X23318Y186095D01*
X23302Y186077D01*
X23273Y186061D01*
X23218Y185994D01*
X23211Y185970D01*
X23193Y185943D01*
X23173Y185858D01*
X23175Y185845D01*
X23170Y185830D01*
X23170Y182223D01*
X23175Y182210D01*
X23173Y182194D01*
X23193Y182110D01*
X23207Y182090D01*
X23218Y182059D01*
X23273Y181992D01*
X23279Y181989D01*
X23281Y181985D01*
X23297Y181979D01*
X23318Y181958D01*
X23397Y181922D01*
X23411Y181922D01*
X23425Y181914D01*
X26949Y181234D01*
X26991Y181214D01*
X27019Y181177D01*
X28235Y178241D01*
X28241Y178195D01*
X28226Y178151D01*
X26214Y175179D01*
X26212Y175165D01*
X26201Y175153D01*
X26170Y175072D01*
X26171Y175048D01*
X26163Y175016D01*
X26171Y174930D01*
X26183Y174908D01*
X26189Y174876D01*
X26235Y174802D01*
X26246Y174794D01*
X26253Y174780D01*
X28803Y172229D01*
X28816Y172224D01*
X28826Y172211D01*
X28899Y172165D01*
X28924Y172162D01*
X28953Y172147D01*
X29040Y172139D01*
X29063Y172146D01*
X29096Y172147D01*
X29177Y172178D01*
X29187Y172187D01*
X29202Y172191D01*
X32175Y174202D01*
X32219Y174218D01*
X32265Y174211D01*
X33608Y173655D01*
X33620Y173655D01*
X33631Y173648D01*
X33704Y173633D01*
X33726Y173638D01*
X33753Y173633D01*
X33826Y173648D01*
X33844Y173660D01*
X33871Y173667D01*
X33933Y173708D01*
X33945Y173726D01*
X33967Y173743D01*
X34008Y173805D01*
X34010Y173816D01*
X34020Y173826D01*
X36519Y179947D01*
X36519Y179962D01*
X36527Y179978D01*
X36540Y180073D01*
X36536Y180085D01*
X36540Y180096D01*
X36533Y180112D01*
X36532Y180135D01*
X36497Y180224D01*
X36479Y180243D01*
X36460Y180275D01*
X36386Y180336D01*
X36378Y180338D01*
X36372Y180345D01*
X35548Y180849D01*
X34876Y181521D01*
X34379Y182332D01*
X34084Y183236D01*
X34009Y184184D01*
X34158Y185123D01*
X34521Y186002D01*
X35080Y186771D01*
X35803Y187388D01*
X36650Y187820D01*
X37575Y188042D01*
X38525Y188042D01*
X39450Y187820D01*
X40297Y187388D01*
X41020Y186771D01*
X41579Y186002D01*
X41942Y185123D01*
X42091Y184184D01*
X42016Y183236D01*
X41722Y182332D01*
X41224Y181521D01*
X40552Y180849D01*
X39728Y180345D01*
X39723Y180339D01*
X39714Y180336D01*
X39640Y180275D01*
X39628Y180252D01*
X39603Y180224D01*
X39568Y180135D01*
X39569Y180109D01*
X39568Y180108D01*
X39560Y180085D01*
X39562Y180080D01*
X39560Y180073D01*
X39573Y179978D01*
X39581Y179965D01*
X39581Y179947D01*
X42080Y173826D01*
X42089Y173818D01*
X42092Y173805D01*
X42133Y173743D01*
X42151Y173731D01*
X42167Y173708D01*
X42229Y173667D01*
X42251Y173662D01*
X42274Y173648D01*
X42347Y173633D01*
X42368Y173638D01*
X42396Y173633D01*
X42469Y173648D01*
X42479Y173654D01*
X42492Y173655D01*
X43836Y174211D01*
X43882Y174218D01*
X43925Y174202D01*
X46898Y172191D01*
X46911Y172188D01*
X46923Y172178D01*
X47004Y172147D01*
X47029Y172148D01*
X47060Y172139D01*
X47147Y172147D01*
G37*
D10*
X739708Y101981D02*
X739708Y93881D01*
X739710Y93788D01*
X739716Y93695D01*
X739725Y93602D01*
X739738Y93510D01*
X739755Y93418D01*
X739775Y93327D01*
X739799Y93237D01*
X739827Y93148D01*
X739858Y93060D01*
X739893Y92974D01*
X739931Y92889D01*
X739973Y92806D01*
X740018Y92724D01*
X740066Y92644D01*
X740118Y92566D01*
X740172Y92491D01*
X740230Y92418D01*
X740290Y92347D01*
X740353Y92278D01*
X740419Y92212D01*
X740488Y92149D01*
X740559Y92089D01*
X740632Y92031D01*
X740707Y91977D01*
X740785Y91925D01*
X740865Y91877D01*
X740947Y91832D01*
X741030Y91790D01*
X741115Y91752D01*
X741201Y91717D01*
X741289Y91686D01*
X741378Y91658D01*
X741468Y91634D01*
X741559Y91614D01*
X741651Y91597D01*
X741743Y91584D01*
X741836Y91575D01*
X741929Y91569D01*
X742022Y91567D01*
X743179Y91567D01*
X733822Y91567D02*
X733822Y101981D01*
X733822Y91567D02*
X729193Y91567D01*
X722439Y91567D02*
X720125Y91567D01*
X722439Y91567D02*
X722532Y91569D01*
X722625Y91575D01*
X722718Y91584D01*
X722810Y91597D01*
X722902Y91614D01*
X722993Y91634D01*
X723083Y91658D01*
X723172Y91686D01*
X723260Y91717D01*
X723346Y91752D01*
X723431Y91790D01*
X723514Y91832D01*
X723596Y91877D01*
X723676Y91925D01*
X723754Y91977D01*
X723829Y92031D01*
X723902Y92089D01*
X723973Y92149D01*
X724042Y92212D01*
X724108Y92278D01*
X724171Y92347D01*
X724231Y92418D01*
X724289Y92491D01*
X724343Y92567D01*
X724395Y92644D01*
X724443Y92724D01*
X724488Y92806D01*
X724530Y92889D01*
X724568Y92974D01*
X724603Y93060D01*
X724634Y93148D01*
X724662Y93237D01*
X724686Y93327D01*
X724706Y93418D01*
X724723Y93510D01*
X724736Y93602D01*
X724745Y93695D01*
X724751Y93788D01*
X724753Y93881D01*
X724753Y99667D01*
X724751Y99763D01*
X724745Y99858D01*
X724735Y99953D01*
X724721Y100048D01*
X724704Y100142D01*
X724682Y100235D01*
X724657Y100327D01*
X724628Y100418D01*
X724595Y100508D01*
X724558Y100597D01*
X724518Y100683D01*
X724474Y100768D01*
X724427Y100851D01*
X724376Y100933D01*
X724322Y101012D01*
X724265Y101088D01*
X724205Y101163D01*
X724141Y101234D01*
X724075Y101303D01*
X724006Y101369D01*
X723935Y101433D01*
X723860Y101493D01*
X723784Y101550D01*
X723705Y101604D01*
X723624Y101655D01*
X723540Y101702D01*
X723455Y101746D01*
X723369Y101786D01*
X723280Y101823D01*
X723190Y101856D01*
X723099Y101885D01*
X723007Y101910D01*
X722914Y101932D01*
X722820Y101949D01*
X722725Y101963D01*
X722630Y101973D01*
X722535Y101979D01*
X722439Y101981D01*
X720125Y101981D01*
X713373Y101981D02*
X713373Y93881D01*
X713375Y93788D01*
X713381Y93695D01*
X713390Y93602D01*
X713403Y93510D01*
X713420Y93418D01*
X713440Y93327D01*
X713464Y93237D01*
X713492Y93148D01*
X713523Y93060D01*
X713558Y92974D01*
X713596Y92889D01*
X713638Y92806D01*
X713683Y92724D01*
X713731Y92644D01*
X713783Y92566D01*
X713837Y92491D01*
X713895Y92418D01*
X713955Y92347D01*
X714018Y92278D01*
X714084Y92212D01*
X714153Y92149D01*
X714224Y92089D01*
X714297Y92031D01*
X714372Y91977D01*
X714450Y91925D01*
X714530Y91877D01*
X714612Y91832D01*
X714695Y91790D01*
X714780Y91752D01*
X714866Y91717D01*
X714954Y91686D01*
X715043Y91658D01*
X715133Y91634D01*
X715224Y91614D01*
X715316Y91597D01*
X715408Y91584D01*
X715501Y91575D01*
X715594Y91569D01*
X715687Y91567D01*
X716845Y91567D01*
X707487Y91567D02*
X707487Y101981D01*
X707487Y91567D02*
X702858Y91567D01*
X696104Y91567D02*
X693790Y91567D01*
X696104Y91567D02*
X696197Y91569D01*
X696290Y91575D01*
X696383Y91584D01*
X696475Y91597D01*
X696567Y91614D01*
X696658Y91634D01*
X696748Y91658D01*
X696837Y91686D01*
X696925Y91717D01*
X697011Y91752D01*
X697096Y91790D01*
X697179Y91832D01*
X697261Y91877D01*
X697341Y91925D01*
X697419Y91977D01*
X697494Y92031D01*
X697567Y92089D01*
X697638Y92149D01*
X697707Y92212D01*
X697773Y92278D01*
X697836Y92347D01*
X697896Y92418D01*
X697954Y92491D01*
X698008Y92567D01*
X698060Y92644D01*
X698108Y92724D01*
X698153Y92806D01*
X698195Y92889D01*
X698233Y92974D01*
X698268Y93060D01*
X698299Y93148D01*
X698327Y93237D01*
X698351Y93327D01*
X698371Y93418D01*
X698388Y93510D01*
X698401Y93602D01*
X698410Y93695D01*
X698416Y93788D01*
X698418Y93881D01*
X698419Y93881D02*
X698419Y99667D01*
X698418Y99667D02*
X698416Y99763D01*
X698410Y99858D01*
X698400Y99953D01*
X698386Y100048D01*
X698369Y100142D01*
X698347Y100235D01*
X698322Y100327D01*
X698293Y100418D01*
X698260Y100508D01*
X698223Y100597D01*
X698183Y100683D01*
X698139Y100768D01*
X698092Y100851D01*
X698041Y100933D01*
X697987Y101012D01*
X697930Y101088D01*
X697870Y101163D01*
X697806Y101234D01*
X697740Y101303D01*
X697671Y101369D01*
X697600Y101433D01*
X697525Y101493D01*
X697449Y101550D01*
X697370Y101604D01*
X697289Y101655D01*
X697205Y101702D01*
X697120Y101746D01*
X697034Y101786D01*
X696945Y101823D01*
X696855Y101856D01*
X696764Y101885D01*
X696672Y101910D01*
X696579Y101932D01*
X696485Y101949D01*
X696390Y101963D01*
X696295Y101973D01*
X696200Y101979D01*
X696104Y101981D01*
X693790Y101981D01*
X687039Y101981D02*
X687039Y93881D01*
X687041Y93788D01*
X687047Y93695D01*
X687056Y93602D01*
X687069Y93510D01*
X687086Y93418D01*
X687106Y93327D01*
X687130Y93237D01*
X687158Y93148D01*
X687189Y93060D01*
X687224Y92974D01*
X687262Y92889D01*
X687304Y92806D01*
X687349Y92724D01*
X687397Y92644D01*
X687449Y92566D01*
X687503Y92491D01*
X687561Y92418D01*
X687621Y92347D01*
X687684Y92278D01*
X687750Y92212D01*
X687819Y92149D01*
X687890Y92089D01*
X687963Y92031D01*
X688038Y91977D01*
X688116Y91925D01*
X688196Y91877D01*
X688278Y91832D01*
X688361Y91790D01*
X688446Y91752D01*
X688532Y91717D01*
X688620Y91686D01*
X688709Y91658D01*
X688799Y91634D01*
X688890Y91614D01*
X688982Y91597D01*
X689074Y91584D01*
X689167Y91575D01*
X689260Y91569D01*
X689353Y91567D01*
X690510Y91567D01*
X681152Y91567D02*
X681152Y101981D01*
X681152Y91567D02*
X676524Y91567D01*
X669770Y91567D02*
X667455Y91567D01*
X669770Y91567D02*
X669863Y91569D01*
X669956Y91575D01*
X670049Y91584D01*
X670141Y91597D01*
X670233Y91614D01*
X670324Y91634D01*
X670414Y91658D01*
X670503Y91686D01*
X670591Y91717D01*
X670677Y91752D01*
X670762Y91790D01*
X670845Y91832D01*
X670927Y91877D01*
X671007Y91925D01*
X671085Y91977D01*
X671160Y92031D01*
X671233Y92089D01*
X671304Y92149D01*
X671373Y92212D01*
X671439Y92278D01*
X671502Y92347D01*
X671562Y92418D01*
X671620Y92491D01*
X671674Y92567D01*
X671726Y92644D01*
X671774Y92724D01*
X671819Y92806D01*
X671861Y92889D01*
X671899Y92974D01*
X671934Y93060D01*
X671965Y93148D01*
X671993Y93237D01*
X672017Y93327D01*
X672037Y93418D01*
X672054Y93510D01*
X672067Y93602D01*
X672076Y93695D01*
X672082Y93788D01*
X672084Y93881D01*
X672084Y99667D01*
X672082Y99763D01*
X672076Y99858D01*
X672066Y99953D01*
X672052Y100048D01*
X672035Y100142D01*
X672013Y100235D01*
X671988Y100327D01*
X671959Y100418D01*
X671926Y100508D01*
X671889Y100597D01*
X671849Y100683D01*
X671805Y100768D01*
X671758Y100851D01*
X671707Y100933D01*
X671653Y101012D01*
X671596Y101088D01*
X671536Y101163D01*
X671472Y101234D01*
X671406Y101303D01*
X671337Y101369D01*
X671266Y101433D01*
X671191Y101493D01*
X671115Y101550D01*
X671036Y101604D01*
X670955Y101655D01*
X670871Y101702D01*
X670786Y101746D01*
X670700Y101786D01*
X670611Y101823D01*
X670521Y101856D01*
X670430Y101885D01*
X670338Y101910D01*
X670245Y101932D01*
X670151Y101949D01*
X670056Y101963D01*
X669961Y101973D01*
X669866Y101979D01*
X669770Y101981D01*
X667455Y101981D01*
X660704Y101981D02*
X660704Y93881D01*
X660706Y93788D01*
X660712Y93695D01*
X660721Y93602D01*
X660734Y93510D01*
X660751Y93418D01*
X660771Y93327D01*
X660795Y93237D01*
X660823Y93148D01*
X660854Y93060D01*
X660889Y92974D01*
X660927Y92889D01*
X660969Y92806D01*
X661014Y92724D01*
X661062Y92644D01*
X661114Y92566D01*
X661168Y92491D01*
X661226Y92418D01*
X661286Y92347D01*
X661349Y92278D01*
X661415Y92212D01*
X661484Y92149D01*
X661555Y92089D01*
X661628Y92031D01*
X661703Y91977D01*
X661781Y91925D01*
X661861Y91877D01*
X661943Y91832D01*
X662026Y91790D01*
X662111Y91752D01*
X662197Y91717D01*
X662285Y91686D01*
X662374Y91658D01*
X662464Y91634D01*
X662555Y91614D01*
X662647Y91597D01*
X662739Y91584D01*
X662832Y91575D01*
X662925Y91569D01*
X663018Y91567D01*
X664175Y91567D01*
X654818Y91567D02*
X654818Y101981D01*
X654818Y91567D02*
X650189Y91567D01*
X643435Y91567D02*
X641121Y91567D01*
X643435Y91567D02*
X643528Y91569D01*
X643621Y91575D01*
X643714Y91584D01*
X643806Y91597D01*
X643898Y91614D01*
X643989Y91634D01*
X644079Y91658D01*
X644168Y91686D01*
X644256Y91717D01*
X644342Y91752D01*
X644427Y91790D01*
X644510Y91832D01*
X644592Y91877D01*
X644672Y91925D01*
X644750Y91977D01*
X644825Y92031D01*
X644898Y92089D01*
X644969Y92149D01*
X645038Y92212D01*
X645104Y92278D01*
X645167Y92347D01*
X645227Y92418D01*
X645285Y92491D01*
X645339Y92567D01*
X645391Y92644D01*
X645439Y92724D01*
X645484Y92806D01*
X645526Y92889D01*
X645564Y92974D01*
X645599Y93060D01*
X645630Y93148D01*
X645658Y93237D01*
X645682Y93327D01*
X645702Y93418D01*
X645719Y93510D01*
X645732Y93602D01*
X645741Y93695D01*
X645747Y93788D01*
X645749Y93881D01*
X645749Y99667D01*
X645747Y99763D01*
X645741Y99858D01*
X645731Y99953D01*
X645717Y100048D01*
X645700Y100142D01*
X645678Y100235D01*
X645653Y100327D01*
X645624Y100418D01*
X645591Y100508D01*
X645554Y100597D01*
X645514Y100683D01*
X645470Y100768D01*
X645423Y100851D01*
X645372Y100933D01*
X645318Y101012D01*
X645261Y101088D01*
X645201Y101163D01*
X645137Y101234D01*
X645071Y101303D01*
X645002Y101369D01*
X644931Y101433D01*
X644856Y101493D01*
X644780Y101550D01*
X644701Y101604D01*
X644620Y101655D01*
X644536Y101702D01*
X644451Y101746D01*
X644365Y101786D01*
X644276Y101823D01*
X644186Y101856D01*
X644095Y101885D01*
X644003Y101910D01*
X643910Y101932D01*
X643816Y101949D01*
X643721Y101963D01*
X643626Y101973D01*
X643531Y101979D01*
X643435Y101981D01*
X641121Y101981D01*
X859951Y176149D02*
X859951Y192151D01*
X855506Y192151D01*
X855374Y192149D01*
X855243Y192143D01*
X855111Y192133D01*
X854980Y192120D01*
X854850Y192102D01*
X854720Y192081D01*
X854590Y192056D01*
X854462Y192027D01*
X854334Y191994D01*
X854208Y191957D01*
X854082Y191917D01*
X853958Y191873D01*
X853835Y191825D01*
X853714Y191774D01*
X853594Y191719D01*
X853476Y191661D01*
X853360Y191599D01*
X853246Y191533D01*
X853133Y191465D01*
X853023Y191393D01*
X852915Y191318D01*
X852809Y191239D01*
X852705Y191158D01*
X852604Y191073D01*
X852506Y190986D01*
X852410Y190895D01*
X852317Y190802D01*
X852226Y190706D01*
X852139Y190608D01*
X852054Y190507D01*
X851973Y190403D01*
X851894Y190297D01*
X851819Y190189D01*
X851747Y190079D01*
X851679Y189966D01*
X851613Y189852D01*
X851551Y189736D01*
X851493Y189618D01*
X851438Y189498D01*
X851387Y189377D01*
X851339Y189254D01*
X851295Y189130D01*
X851255Y189004D01*
X851218Y188878D01*
X851185Y188750D01*
X851156Y188622D01*
X851131Y188492D01*
X851110Y188362D01*
X851092Y188232D01*
X851079Y188101D01*
X851069Y187969D01*
X851063Y187838D01*
X851061Y187706D01*
X851063Y187574D01*
X851069Y187443D01*
X851079Y187311D01*
X851092Y187180D01*
X851110Y187050D01*
X851131Y186920D01*
X851156Y186790D01*
X851185Y186662D01*
X851218Y186534D01*
X851255Y186408D01*
X851295Y186282D01*
X851339Y186158D01*
X851387Y186035D01*
X851438Y185914D01*
X851493Y185794D01*
X851551Y185676D01*
X851613Y185560D01*
X851679Y185446D01*
X851747Y185333D01*
X851819Y185223D01*
X851894Y185115D01*
X851973Y185009D01*
X852054Y184905D01*
X852139Y184804D01*
X852226Y184706D01*
X852317Y184610D01*
X852410Y184517D01*
X852506Y184426D01*
X852604Y184339D01*
X852705Y184254D01*
X852809Y184173D01*
X852915Y184094D01*
X853023Y184019D01*
X853133Y183947D01*
X853246Y183879D01*
X853360Y183813D01*
X853476Y183751D01*
X853594Y183693D01*
X853714Y183638D01*
X853835Y183587D01*
X853958Y183539D01*
X854082Y183495D01*
X854208Y183455D01*
X854334Y183418D01*
X854462Y183385D01*
X854590Y183356D01*
X854720Y183331D01*
X854850Y183310D01*
X854980Y183292D01*
X855111Y183279D01*
X855243Y183269D01*
X855374Y183263D01*
X855506Y183261D01*
X859951Y183261D01*
X841561Y176149D02*
X838005Y176149D01*
X841561Y176149D02*
X841677Y176151D01*
X841794Y176157D01*
X841910Y176166D01*
X842025Y176179D01*
X842140Y176196D01*
X842255Y176217D01*
X842368Y176242D01*
X842481Y176270D01*
X842593Y176302D01*
X842704Y176338D01*
X842814Y176377D01*
X842922Y176420D01*
X843029Y176466D01*
X843134Y176516D01*
X843237Y176569D01*
X843339Y176625D01*
X843439Y176685D01*
X843537Y176748D01*
X843632Y176815D01*
X843726Y176884D01*
X843817Y176956D01*
X843906Y177031D01*
X843992Y177110D01*
X844075Y177191D01*
X844156Y177274D01*
X844235Y177360D01*
X844310Y177449D01*
X844382Y177540D01*
X844451Y177634D01*
X844518Y177729D01*
X844581Y177827D01*
X844641Y177927D01*
X844697Y178029D01*
X844750Y178132D01*
X844800Y178237D01*
X844846Y178344D01*
X844889Y178452D01*
X844928Y178562D01*
X844964Y178673D01*
X844996Y178785D01*
X845024Y178898D01*
X845049Y179011D01*
X845070Y179126D01*
X845087Y179241D01*
X845100Y179356D01*
X845109Y179472D01*
X845115Y179589D01*
X845117Y179705D01*
X845117Y188595D01*
X845115Y188711D01*
X845109Y188828D01*
X845100Y188944D01*
X845087Y189059D01*
X845070Y189174D01*
X845049Y189289D01*
X845024Y189402D01*
X844996Y189515D01*
X844964Y189627D01*
X844928Y189738D01*
X844889Y189848D01*
X844846Y189956D01*
X844800Y190063D01*
X844750Y190168D01*
X844697Y190271D01*
X844641Y190373D01*
X844581Y190473D01*
X844518Y190571D01*
X844451Y190666D01*
X844382Y190760D01*
X844310Y190851D01*
X844235Y190940D01*
X844156Y191026D01*
X844075Y191109D01*
X843992Y191190D01*
X843906Y191269D01*
X843817Y191344D01*
X843726Y191416D01*
X843632Y191485D01*
X843537Y191552D01*
X843439Y191615D01*
X843339Y191675D01*
X843237Y191731D01*
X843134Y191784D01*
X843029Y191834D01*
X842922Y191880D01*
X842814Y191923D01*
X842704Y191962D01*
X842593Y191998D01*
X842481Y192030D01*
X842368Y192058D01*
X842255Y192083D01*
X842140Y192104D01*
X842025Y192121D01*
X841910Y192134D01*
X841794Y192143D01*
X841677Y192149D01*
X841561Y192151D01*
X838005Y192151D01*
X831294Y185039D02*
X826849Y185039D01*
X826717Y185037D01*
X826586Y185031D01*
X826454Y185021D01*
X826323Y185008D01*
X826193Y184990D01*
X826063Y184969D01*
X825933Y184944D01*
X825805Y184915D01*
X825677Y184882D01*
X825551Y184845D01*
X825425Y184805D01*
X825301Y184761D01*
X825178Y184713D01*
X825057Y184662D01*
X824937Y184607D01*
X824819Y184549D01*
X824703Y184487D01*
X824589Y184421D01*
X824476Y184353D01*
X824366Y184281D01*
X824258Y184206D01*
X824152Y184127D01*
X824048Y184046D01*
X823947Y183961D01*
X823849Y183874D01*
X823753Y183783D01*
X823660Y183690D01*
X823569Y183594D01*
X823482Y183496D01*
X823397Y183395D01*
X823316Y183291D01*
X823237Y183185D01*
X823162Y183077D01*
X823090Y182967D01*
X823022Y182854D01*
X822956Y182740D01*
X822894Y182624D01*
X822836Y182506D01*
X822781Y182386D01*
X822730Y182265D01*
X822682Y182142D01*
X822638Y182018D01*
X822598Y181892D01*
X822561Y181766D01*
X822528Y181638D01*
X822499Y181510D01*
X822474Y181380D01*
X822453Y181250D01*
X822435Y181120D01*
X822422Y180989D01*
X822412Y180857D01*
X822406Y180726D01*
X822404Y180594D01*
X822406Y180462D01*
X822412Y180331D01*
X822422Y180199D01*
X822435Y180068D01*
X822453Y179938D01*
X822474Y179808D01*
X822499Y179678D01*
X822528Y179550D01*
X822561Y179422D01*
X822598Y179296D01*
X822638Y179170D01*
X822682Y179046D01*
X822730Y178923D01*
X822781Y178802D01*
X822836Y178682D01*
X822894Y178564D01*
X822956Y178448D01*
X823022Y178334D01*
X823090Y178221D01*
X823162Y178111D01*
X823237Y178003D01*
X823316Y177897D01*
X823397Y177793D01*
X823482Y177692D01*
X823569Y177594D01*
X823660Y177498D01*
X823753Y177405D01*
X823849Y177314D01*
X823947Y177227D01*
X824048Y177142D01*
X824152Y177061D01*
X824258Y176982D01*
X824366Y176907D01*
X824476Y176835D01*
X824589Y176767D01*
X824703Y176701D01*
X824819Y176639D01*
X824937Y176581D01*
X825057Y176526D01*
X825178Y176475D01*
X825301Y176427D01*
X825425Y176383D01*
X825551Y176343D01*
X825677Y176306D01*
X825805Y176273D01*
X825933Y176244D01*
X826063Y176219D01*
X826193Y176198D01*
X826323Y176180D01*
X826454Y176167D01*
X826586Y176157D01*
X826717Y176151D01*
X826849Y176149D01*
X831294Y176149D01*
X831294Y192151D01*
X826849Y192151D01*
X826731Y192149D01*
X826614Y192143D01*
X826497Y192134D01*
X826380Y192120D01*
X826264Y192103D01*
X826148Y192081D01*
X826033Y192056D01*
X825919Y192027D01*
X825806Y191995D01*
X825694Y191958D01*
X825584Y191918D01*
X825475Y191875D01*
X825367Y191827D01*
X825261Y191777D01*
X825157Y191722D01*
X825054Y191665D01*
X824954Y191604D01*
X824855Y191539D01*
X824759Y191472D01*
X824665Y191401D01*
X824573Y191327D01*
X824484Y191251D01*
X824398Y191171D01*
X824314Y191089D01*
X824233Y191003D01*
X824155Y190916D01*
X824079Y190825D01*
X824007Y190732D01*
X823938Y190637D01*
X823872Y190540D01*
X823809Y190440D01*
X823750Y190339D01*
X823694Y190236D01*
X823642Y190130D01*
X823593Y190023D01*
X823547Y189915D01*
X823505Y189805D01*
X823467Y189694D01*
X823433Y189581D01*
X823402Y189468D01*
X823375Y189353D01*
X823352Y189238D01*
X823332Y189122D01*
X823317Y189006D01*
X823305Y188889D01*
X823297Y188771D01*
X823293Y188654D01*
X823293Y188536D01*
X823297Y188419D01*
X823305Y188301D01*
X823317Y188184D01*
X823332Y188068D01*
X823352Y187952D01*
X823375Y187837D01*
X823402Y187722D01*
X823433Y187609D01*
X823467Y187496D01*
X823505Y187385D01*
X823547Y187275D01*
X823593Y187167D01*
X823642Y187060D01*
X823694Y186954D01*
X823750Y186851D01*
X823809Y186750D01*
X823872Y186650D01*
X823938Y186553D01*
X824007Y186458D01*
X824079Y186365D01*
X824155Y186274D01*
X824233Y186187D01*
X824314Y186101D01*
X824398Y186019D01*
X824484Y185939D01*
X824573Y185863D01*
X824665Y185789D01*
X824759Y185718D01*
X824855Y185651D01*
X824954Y185586D01*
X825054Y185525D01*
X825157Y185468D01*
X825261Y185413D01*
X825367Y185363D01*
X825475Y185315D01*
X825584Y185272D01*
X825694Y185232D01*
X825806Y185195D01*
X825919Y185163D01*
X826033Y185134D01*
X826148Y185109D01*
X826264Y185087D01*
X826380Y185070D01*
X826497Y185056D01*
X826614Y185047D01*
X826731Y185041D01*
X826849Y185039D01*
X807458Y192151D02*
X807458Y176149D01*
X807458Y192151D02*
X803013Y192151D01*
X802881Y192149D01*
X802750Y192143D01*
X802618Y192133D01*
X802487Y192120D01*
X802357Y192102D01*
X802227Y192081D01*
X802097Y192056D01*
X801969Y192027D01*
X801841Y191994D01*
X801715Y191957D01*
X801589Y191917D01*
X801465Y191873D01*
X801342Y191825D01*
X801221Y191774D01*
X801101Y191719D01*
X800983Y191661D01*
X800867Y191599D01*
X800753Y191533D01*
X800640Y191465D01*
X800530Y191393D01*
X800422Y191318D01*
X800316Y191239D01*
X800212Y191158D01*
X800111Y191073D01*
X800013Y190986D01*
X799917Y190895D01*
X799824Y190802D01*
X799733Y190706D01*
X799646Y190608D01*
X799561Y190507D01*
X799480Y190403D01*
X799401Y190297D01*
X799326Y190189D01*
X799254Y190079D01*
X799186Y189966D01*
X799120Y189852D01*
X799058Y189736D01*
X799000Y189618D01*
X798945Y189498D01*
X798894Y189377D01*
X798846Y189254D01*
X798802Y189130D01*
X798762Y189004D01*
X798725Y188878D01*
X798692Y188750D01*
X798663Y188622D01*
X798638Y188492D01*
X798617Y188362D01*
X798599Y188232D01*
X798586Y188101D01*
X798576Y187969D01*
X798570Y187838D01*
X798568Y187706D01*
X798570Y187574D01*
X798576Y187443D01*
X798586Y187311D01*
X798599Y187180D01*
X798617Y187050D01*
X798638Y186920D01*
X798663Y186790D01*
X798692Y186662D01*
X798725Y186534D01*
X798762Y186408D01*
X798802Y186282D01*
X798846Y186158D01*
X798894Y186035D01*
X798945Y185914D01*
X799000Y185794D01*
X799058Y185676D01*
X799120Y185560D01*
X799186Y185446D01*
X799254Y185333D01*
X799326Y185223D01*
X799401Y185115D01*
X799480Y185009D01*
X799561Y184905D01*
X799646Y184804D01*
X799733Y184706D01*
X799824Y184610D01*
X799917Y184517D01*
X800013Y184426D01*
X800111Y184339D01*
X800212Y184254D01*
X800316Y184173D01*
X800422Y184094D01*
X800530Y184019D01*
X800640Y183947D01*
X800753Y183879D01*
X800867Y183813D01*
X800983Y183751D01*
X801101Y183693D01*
X801221Y183638D01*
X801342Y183587D01*
X801465Y183539D01*
X801589Y183495D01*
X801715Y183455D01*
X801841Y183418D01*
X801969Y183385D01*
X802097Y183356D01*
X802227Y183331D01*
X802357Y183310D01*
X802487Y183292D01*
X802618Y183279D01*
X802750Y183269D01*
X802881Y183263D01*
X803013Y183261D01*
X807458Y183261D01*
X802124Y183261D02*
X798568Y176149D01*
X789413Y176149D02*
X784968Y176149D01*
X789413Y176149D02*
X789515Y176151D01*
X789617Y176157D01*
X789719Y176167D01*
X789820Y176180D01*
X789921Y176198D01*
X790021Y176219D01*
X790120Y176244D01*
X790218Y176273D01*
X790314Y176306D01*
X790410Y176342D01*
X790504Y176382D01*
X790596Y176426D01*
X790687Y176473D01*
X790776Y176524D01*
X790863Y176577D01*
X790947Y176635D01*
X791030Y176695D01*
X791110Y176758D01*
X791187Y176825D01*
X791262Y176894D01*
X791335Y176967D01*
X791404Y177042D01*
X791471Y177119D01*
X791534Y177199D01*
X791594Y177282D01*
X791652Y177366D01*
X791705Y177453D01*
X791756Y177542D01*
X791803Y177633D01*
X791847Y177725D01*
X791887Y177819D01*
X791923Y177915D01*
X791956Y178011D01*
X791985Y178109D01*
X792010Y178208D01*
X792031Y178308D01*
X792049Y178409D01*
X792062Y178510D01*
X792072Y178612D01*
X792078Y178714D01*
X792080Y178816D01*
X792080Y183261D01*
X792078Y183379D01*
X792072Y183496D01*
X792063Y183613D01*
X792049Y183730D01*
X792032Y183846D01*
X792010Y183962D01*
X791985Y184077D01*
X791956Y184191D01*
X791924Y184304D01*
X791887Y184416D01*
X791847Y184526D01*
X791804Y184635D01*
X791756Y184743D01*
X791706Y184849D01*
X791651Y184953D01*
X791594Y185056D01*
X791533Y185156D01*
X791468Y185255D01*
X791401Y185351D01*
X791330Y185445D01*
X791256Y185537D01*
X791180Y185626D01*
X791100Y185712D01*
X791018Y185796D01*
X790932Y185877D01*
X790845Y185955D01*
X790754Y186031D01*
X790661Y186103D01*
X790566Y186172D01*
X790469Y186238D01*
X790369Y186301D01*
X790268Y186360D01*
X790165Y186416D01*
X790059Y186468D01*
X789952Y186517D01*
X789844Y186563D01*
X789734Y186605D01*
X789623Y186643D01*
X789510Y186677D01*
X789397Y186708D01*
X789282Y186735D01*
X789167Y186758D01*
X789051Y186778D01*
X788935Y186793D01*
X788818Y186805D01*
X788700Y186813D01*
X788583Y186817D01*
X788465Y186817D01*
X788348Y186813D01*
X788230Y186805D01*
X788113Y186793D01*
X787997Y186778D01*
X787881Y186758D01*
X787766Y186735D01*
X787651Y186708D01*
X787538Y186677D01*
X787425Y186643D01*
X787314Y186605D01*
X787204Y186563D01*
X787096Y186517D01*
X786989Y186468D01*
X786883Y186416D01*
X786780Y186360D01*
X786679Y186301D01*
X786579Y186238D01*
X786482Y186172D01*
X786387Y186103D01*
X786294Y186031D01*
X786203Y185955D01*
X786116Y185877D01*
X786030Y185796D01*
X785948Y185712D01*
X785868Y185626D01*
X785792Y185537D01*
X785718Y185445D01*
X785647Y185351D01*
X785580Y185255D01*
X785515Y185156D01*
X785454Y185056D01*
X785397Y184953D01*
X785342Y184849D01*
X785292Y184743D01*
X785244Y184635D01*
X785201Y184526D01*
X785161Y184416D01*
X785124Y184304D01*
X785092Y184191D01*
X785063Y184077D01*
X785038Y183962D01*
X785016Y183846D01*
X784999Y183730D01*
X784985Y183613D01*
X784976Y183496D01*
X784970Y183379D01*
X784968Y183261D01*
X784968Y181483D01*
X792080Y181483D01*
X779054Y186817D02*
X775498Y176149D01*
X771942Y186817D01*
X766564Y177038D02*
X766564Y176149D01*
X766564Y177038D02*
X765675Y177038D01*
X765675Y176149D01*
X766564Y176149D01*
X748602Y192152D02*
X748476Y192150D01*
X748351Y192144D01*
X748225Y192134D01*
X748101Y192120D01*
X747976Y192103D01*
X747852Y192081D01*
X747729Y192056D01*
X747607Y192026D01*
X747486Y191993D01*
X747366Y191956D01*
X747247Y191915D01*
X747129Y191871D01*
X747013Y191823D01*
X746898Y191771D01*
X746786Y191716D01*
X746675Y191657D01*
X746565Y191595D01*
X746458Y191529D01*
X746353Y191460D01*
X746250Y191388D01*
X746150Y191312D01*
X746052Y191234D01*
X745956Y191152D01*
X745863Y191068D01*
X745773Y190980D01*
X745685Y190890D01*
X745601Y190797D01*
X745519Y190701D01*
X745441Y190603D01*
X745365Y190503D01*
X745293Y190400D01*
X745224Y190295D01*
X745158Y190188D01*
X745096Y190078D01*
X745037Y189967D01*
X744982Y189855D01*
X744930Y189740D01*
X744882Y189624D01*
X744838Y189506D01*
X744797Y189387D01*
X744760Y189267D01*
X744727Y189146D01*
X744697Y189024D01*
X744672Y188901D01*
X744650Y188777D01*
X744633Y188652D01*
X744619Y188528D01*
X744609Y188402D01*
X744603Y188277D01*
X744601Y188151D01*
X748602Y192151D02*
X748743Y192149D01*
X748883Y192143D01*
X749023Y192134D01*
X749163Y192120D01*
X749302Y192103D01*
X749441Y192082D01*
X749580Y192057D01*
X749717Y192029D01*
X749854Y191996D01*
X749990Y191960D01*
X750125Y191920D01*
X750258Y191877D01*
X750391Y191830D01*
X750522Y191779D01*
X750651Y191725D01*
X750779Y191667D01*
X750906Y191606D01*
X751031Y191541D01*
X751153Y191473D01*
X751274Y191402D01*
X751394Y191327D01*
X751510Y191249D01*
X751625Y191168D01*
X751738Y191084D01*
X751848Y190996D01*
X751956Y190906D01*
X752061Y190813D01*
X752163Y190717D01*
X752263Y190618D01*
X752361Y190517D01*
X752455Y190413D01*
X752547Y190306D01*
X752635Y190197D01*
X752721Y190086D01*
X752803Y189972D01*
X752883Y189856D01*
X752959Y189738D01*
X753032Y189618D01*
X753101Y189496D01*
X753168Y189372D01*
X753231Y189246D01*
X753290Y189119D01*
X753346Y188990D01*
X753398Y188860D01*
X753447Y188728D01*
X753492Y188595D01*
X745935Y185039D02*
X745843Y185130D01*
X745753Y185223D01*
X745667Y185318D01*
X745583Y185416D01*
X745503Y185517D01*
X745425Y185620D01*
X745351Y185725D01*
X745280Y185833D01*
X745212Y185942D01*
X745148Y186054D01*
X745086Y186167D01*
X745029Y186282D01*
X744974Y186399D01*
X744923Y186518D01*
X744876Y186638D01*
X744833Y186759D01*
X744793Y186881D01*
X744757Y187005D01*
X744724Y187130D01*
X744695Y187255D01*
X744670Y187382D01*
X744649Y187509D01*
X744632Y187637D01*
X744618Y187765D01*
X744609Y187893D01*
X744603Y188022D01*
X744601Y188151D01*
X745935Y185039D02*
X753491Y176149D01*
X744601Y176149D01*
X737860Y179705D02*
X734304Y192151D01*
X737860Y179705D02*
X728970Y179705D01*
X731637Y183261D02*
X731637Y176149D01*
X722917Y176149D02*
X722917Y177038D01*
X722028Y177038D01*
X722028Y176149D01*
X722917Y176149D01*
X715976Y184150D02*
X715972Y184465D01*
X715961Y184779D01*
X715942Y185094D01*
X715916Y185407D01*
X715882Y185720D01*
X715841Y186032D01*
X715792Y186343D01*
X715736Y186653D01*
X715673Y186962D01*
X715602Y187268D01*
X715524Y187573D01*
X715439Y187876D01*
X715346Y188177D01*
X715246Y188476D01*
X715139Y188772D01*
X715026Y189066D01*
X714905Y189356D01*
X714777Y189644D01*
X714642Y189929D01*
X714604Y190035D01*
X714561Y190140D01*
X714516Y190244D01*
X714466Y190346D01*
X714413Y190446D01*
X714357Y190545D01*
X714297Y190641D01*
X714234Y190735D01*
X714168Y190827D01*
X714099Y190917D01*
X714027Y191004D01*
X713951Y191089D01*
X713873Y191171D01*
X713792Y191250D01*
X713709Y191327D01*
X713622Y191400D01*
X713534Y191471D01*
X713443Y191538D01*
X713349Y191603D01*
X713254Y191664D01*
X713156Y191721D01*
X713057Y191776D01*
X712956Y191826D01*
X712853Y191874D01*
X712748Y191918D01*
X712642Y191958D01*
X712535Y191994D01*
X712426Y192027D01*
X712317Y192056D01*
X712206Y192081D01*
X712095Y192102D01*
X711983Y192120D01*
X711870Y192133D01*
X711757Y192143D01*
X711644Y192149D01*
X711531Y192151D01*
X711418Y192149D01*
X711305Y192143D01*
X711192Y192133D01*
X711079Y192120D01*
X710967Y192102D01*
X710856Y192081D01*
X710745Y192056D01*
X710636Y192027D01*
X710527Y191994D01*
X710420Y191958D01*
X710314Y191918D01*
X710209Y191874D01*
X710106Y191826D01*
X710005Y191776D01*
X709906Y191721D01*
X709808Y191664D01*
X709713Y191603D01*
X709619Y191538D01*
X709528Y191471D01*
X709440Y191400D01*
X709353Y191327D01*
X709270Y191250D01*
X709189Y191171D01*
X709111Y191089D01*
X709035Y191004D01*
X708963Y190917D01*
X708894Y190827D01*
X708828Y190735D01*
X708765Y190641D01*
X708705Y190545D01*
X708649Y190446D01*
X708596Y190346D01*
X708546Y190244D01*
X708501Y190140D01*
X708458Y190035D01*
X708420Y189929D01*
X708285Y189644D01*
X708157Y189356D01*
X708036Y189066D01*
X707923Y188772D01*
X707816Y188476D01*
X707716Y188177D01*
X707623Y187876D01*
X707538Y187573D01*
X707460Y187268D01*
X707389Y186962D01*
X707326Y186653D01*
X707270Y186343D01*
X707221Y186032D01*
X707180Y185720D01*
X707146Y185407D01*
X707120Y185094D01*
X707101Y184779D01*
X707090Y184465D01*
X707086Y184150D01*
X715976Y184150D02*
X715972Y183835D01*
X715961Y183521D01*
X715942Y183206D01*
X715916Y182893D01*
X715882Y182580D01*
X715841Y182268D01*
X715792Y181957D01*
X715736Y181647D01*
X715673Y181338D01*
X715602Y181032D01*
X715524Y180727D01*
X715439Y180424D01*
X715346Y180123D01*
X715246Y179824D01*
X715139Y179528D01*
X715026Y179234D01*
X714905Y178944D01*
X714777Y178656D01*
X714642Y178371D01*
X714604Y178265D01*
X714561Y178160D01*
X714516Y178056D01*
X714466Y177954D01*
X714413Y177854D01*
X714357Y177755D01*
X714297Y177659D01*
X714234Y177565D01*
X714168Y177473D01*
X714099Y177383D01*
X714027Y177296D01*
X713951Y177211D01*
X713873Y177129D01*
X713792Y177050D01*
X713709Y176973D01*
X713622Y176900D01*
X713534Y176829D01*
X713443Y176762D01*
X713349Y176697D01*
X713254Y176636D01*
X713156Y176579D01*
X713057Y176524D01*
X712956Y176474D01*
X712853Y176426D01*
X712748Y176382D01*
X712642Y176342D01*
X712535Y176306D01*
X712426Y176273D01*
X712317Y176244D01*
X712206Y176219D01*
X712095Y176198D01*
X711983Y176180D01*
X711870Y176167D01*
X711757Y176157D01*
X711644Y176151D01*
X711531Y176149D01*
X708420Y178371D02*
X708285Y178656D01*
X708157Y178944D01*
X708036Y179234D01*
X707923Y179528D01*
X707816Y179824D01*
X707716Y180123D01*
X707623Y180424D01*
X707538Y180727D01*
X707460Y181032D01*
X707389Y181338D01*
X707326Y181647D01*
X707270Y181957D01*
X707221Y182268D01*
X707180Y182580D01*
X707146Y182893D01*
X707120Y183206D01*
X707101Y183521D01*
X707090Y183835D01*
X707086Y184150D01*
X708420Y178371D02*
X708458Y178265D01*
X708501Y178160D01*
X708546Y178056D01*
X708596Y177954D01*
X708649Y177854D01*
X708705Y177755D01*
X708765Y177659D01*
X708828Y177565D01*
X708894Y177473D01*
X708963Y177383D01*
X709035Y177296D01*
X709111Y177211D01*
X709189Y177129D01*
X709270Y177050D01*
X709353Y176973D01*
X709440Y176900D01*
X709528Y176829D01*
X709619Y176762D01*
X709713Y176697D01*
X709808Y176636D01*
X709906Y176579D01*
X710005Y176524D01*
X710106Y176474D01*
X710209Y176426D01*
X710314Y176382D01*
X710420Y176342D01*
X710527Y176306D01*
X710636Y176273D01*
X710745Y176244D01*
X710856Y176219D01*
X710967Y176198D01*
X711079Y176180D01*
X711192Y176167D01*
X711305Y176157D01*
X711418Y176151D01*
X711531Y176149D01*
X715087Y179705D02*
X707975Y188595D01*
X500712Y179705D02*
X497156Y192151D01*
X500712Y179705D02*
X491822Y179705D01*
X494489Y183261D02*
X494489Y176149D01*
X484407Y176149D02*
X484407Y192151D01*
X479073Y183261D01*
X473739Y192151D01*
X473739Y176149D01*
X465570Y185039D02*
X461125Y185039D01*
X460993Y185037D01*
X460862Y185031D01*
X460730Y185021D01*
X460599Y185008D01*
X460469Y184990D01*
X460339Y184969D01*
X460209Y184944D01*
X460081Y184915D01*
X459953Y184882D01*
X459827Y184845D01*
X459701Y184805D01*
X459577Y184761D01*
X459454Y184713D01*
X459333Y184662D01*
X459213Y184607D01*
X459095Y184549D01*
X458979Y184487D01*
X458865Y184421D01*
X458752Y184353D01*
X458642Y184281D01*
X458534Y184206D01*
X458428Y184127D01*
X458324Y184046D01*
X458223Y183961D01*
X458125Y183874D01*
X458029Y183783D01*
X457936Y183690D01*
X457845Y183594D01*
X457758Y183496D01*
X457673Y183395D01*
X457592Y183291D01*
X457513Y183185D01*
X457438Y183077D01*
X457366Y182967D01*
X457298Y182854D01*
X457232Y182740D01*
X457170Y182624D01*
X457112Y182506D01*
X457057Y182386D01*
X457006Y182265D01*
X456958Y182142D01*
X456914Y182018D01*
X456874Y181892D01*
X456837Y181766D01*
X456804Y181638D01*
X456775Y181510D01*
X456750Y181380D01*
X456729Y181250D01*
X456711Y181120D01*
X456698Y180989D01*
X456688Y180857D01*
X456682Y180726D01*
X456680Y180594D01*
X456682Y180462D01*
X456688Y180331D01*
X456698Y180199D01*
X456711Y180068D01*
X456729Y179938D01*
X456750Y179808D01*
X456775Y179678D01*
X456804Y179550D01*
X456837Y179422D01*
X456874Y179296D01*
X456914Y179170D01*
X456958Y179046D01*
X457006Y178923D01*
X457057Y178802D01*
X457112Y178682D01*
X457170Y178564D01*
X457232Y178448D01*
X457298Y178334D01*
X457366Y178221D01*
X457438Y178111D01*
X457513Y178003D01*
X457592Y177897D01*
X457673Y177793D01*
X457758Y177692D01*
X457845Y177594D01*
X457936Y177498D01*
X458029Y177405D01*
X458125Y177314D01*
X458223Y177227D01*
X458324Y177142D01*
X458428Y177061D01*
X458534Y176982D01*
X458642Y176907D01*
X458752Y176835D01*
X458865Y176767D01*
X458979Y176701D01*
X459095Y176639D01*
X459213Y176581D01*
X459333Y176526D01*
X459454Y176475D01*
X459577Y176427D01*
X459701Y176383D01*
X459827Y176343D01*
X459953Y176306D01*
X460081Y176273D01*
X460209Y176244D01*
X460339Y176219D01*
X460469Y176198D01*
X460599Y176180D01*
X460730Y176167D01*
X460862Y176157D01*
X460993Y176151D01*
X461125Y176149D01*
X465570Y176149D01*
X465570Y192151D01*
X461125Y192151D01*
X461007Y192149D01*
X460890Y192143D01*
X460773Y192134D01*
X460656Y192120D01*
X460540Y192103D01*
X460424Y192081D01*
X460309Y192056D01*
X460195Y192027D01*
X460082Y191995D01*
X459970Y191958D01*
X459860Y191918D01*
X459751Y191875D01*
X459643Y191827D01*
X459537Y191777D01*
X459433Y191722D01*
X459330Y191665D01*
X459230Y191604D01*
X459131Y191539D01*
X459035Y191472D01*
X458941Y191401D01*
X458849Y191327D01*
X458760Y191251D01*
X458674Y191171D01*
X458590Y191089D01*
X458509Y191003D01*
X458431Y190916D01*
X458355Y190825D01*
X458283Y190732D01*
X458214Y190637D01*
X458148Y190540D01*
X458085Y190440D01*
X458026Y190339D01*
X457970Y190236D01*
X457918Y190130D01*
X457869Y190023D01*
X457823Y189915D01*
X457781Y189805D01*
X457743Y189694D01*
X457709Y189581D01*
X457678Y189468D01*
X457651Y189353D01*
X457628Y189238D01*
X457608Y189122D01*
X457593Y189006D01*
X457581Y188889D01*
X457573Y188771D01*
X457569Y188654D01*
X457569Y188536D01*
X457573Y188419D01*
X457581Y188301D01*
X457593Y188184D01*
X457608Y188068D01*
X457628Y187952D01*
X457651Y187837D01*
X457678Y187722D01*
X457709Y187609D01*
X457743Y187496D01*
X457781Y187385D01*
X457823Y187275D01*
X457869Y187167D01*
X457918Y187060D01*
X457970Y186954D01*
X458026Y186851D01*
X458085Y186750D01*
X458148Y186650D01*
X458214Y186553D01*
X458283Y186458D01*
X458355Y186365D01*
X458431Y186274D01*
X458509Y186187D01*
X458590Y186101D01*
X458674Y186019D01*
X458760Y185939D01*
X458849Y185863D01*
X458941Y185789D01*
X459035Y185718D01*
X459131Y185651D01*
X459230Y185586D01*
X459330Y185525D01*
X459433Y185468D01*
X459537Y185413D01*
X459643Y185363D01*
X459751Y185315D01*
X459860Y185272D01*
X459970Y185232D01*
X460082Y185195D01*
X460195Y185163D01*
X460309Y185134D01*
X460424Y185109D01*
X460540Y185087D01*
X460656Y185070D01*
X460773Y185056D01*
X460890Y185047D01*
X461007Y185041D01*
X461125Y185039D01*
X437542Y176149D02*
X437426Y176151D01*
X437309Y176157D01*
X437193Y176166D01*
X437078Y176179D01*
X436963Y176196D01*
X436848Y176217D01*
X436735Y176242D01*
X436622Y176270D01*
X436510Y176302D01*
X436399Y176338D01*
X436289Y176377D01*
X436181Y176420D01*
X436074Y176466D01*
X435969Y176516D01*
X435866Y176569D01*
X435764Y176625D01*
X435664Y176685D01*
X435566Y176748D01*
X435471Y176815D01*
X435377Y176884D01*
X435286Y176956D01*
X435197Y177031D01*
X435111Y177110D01*
X435028Y177191D01*
X434947Y177274D01*
X434868Y177360D01*
X434793Y177449D01*
X434721Y177540D01*
X434652Y177634D01*
X434585Y177729D01*
X434522Y177827D01*
X434462Y177927D01*
X434406Y178029D01*
X434353Y178132D01*
X434303Y178237D01*
X434257Y178344D01*
X434214Y178452D01*
X434175Y178562D01*
X434139Y178673D01*
X434107Y178785D01*
X434079Y178898D01*
X434054Y179011D01*
X434033Y179126D01*
X434016Y179241D01*
X434003Y179356D01*
X433994Y179472D01*
X433988Y179589D01*
X433986Y179705D01*
X437542Y176149D02*
X437722Y176151D01*
X437901Y176158D01*
X438081Y176168D01*
X438260Y176183D01*
X438439Y176203D01*
X438617Y176226D01*
X438794Y176254D01*
X438971Y176286D01*
X439147Y176322D01*
X439322Y176363D01*
X439496Y176408D01*
X439669Y176457D01*
X439841Y176509D01*
X440012Y176567D01*
X440181Y176628D01*
X440348Y176693D01*
X440514Y176762D01*
X440678Y176835D01*
X440841Y176912D01*
X441001Y176993D01*
X441160Y177077D01*
X441316Y177166D01*
X441470Y177258D01*
X441622Y177354D01*
X441772Y177453D01*
X441920Y177556D01*
X442064Y177663D01*
X442207Y177773D01*
X442346Y177886D01*
X442483Y178003D01*
X442617Y178122D01*
X442748Y178245D01*
X442876Y178371D01*
X442432Y188595D02*
X442430Y188711D01*
X442424Y188828D01*
X442415Y188944D01*
X442402Y189059D01*
X442385Y189174D01*
X442364Y189289D01*
X442339Y189402D01*
X442311Y189515D01*
X442279Y189627D01*
X442243Y189738D01*
X442204Y189848D01*
X442161Y189956D01*
X442115Y190063D01*
X442065Y190168D01*
X442012Y190271D01*
X441956Y190373D01*
X441896Y190473D01*
X441833Y190571D01*
X441766Y190666D01*
X441697Y190760D01*
X441625Y190851D01*
X441550Y190940D01*
X441471Y191026D01*
X441390Y191109D01*
X441307Y191190D01*
X441221Y191269D01*
X441132Y191344D01*
X441041Y191416D01*
X440947Y191485D01*
X440852Y191552D01*
X440754Y191615D01*
X440654Y191675D01*
X440552Y191731D01*
X440449Y191784D01*
X440344Y191834D01*
X440237Y191880D01*
X440129Y191923D01*
X440019Y191962D01*
X439908Y191998D01*
X439796Y192030D01*
X439683Y192058D01*
X439570Y192083D01*
X439455Y192104D01*
X439340Y192121D01*
X439225Y192134D01*
X439109Y192143D01*
X438992Y192149D01*
X438876Y192151D01*
X438876Y192152D02*
X438717Y192150D01*
X438558Y192144D01*
X438400Y192135D01*
X438241Y192122D01*
X438083Y192105D01*
X437926Y192084D01*
X437769Y192059D01*
X437612Y192031D01*
X437457Y191999D01*
X437302Y191964D01*
X437148Y191924D01*
X436995Y191881D01*
X436843Y191834D01*
X436692Y191784D01*
X436543Y191730D01*
X436394Y191673D01*
X436248Y191612D01*
X436102Y191548D01*
X435959Y191480D01*
X435817Y191409D01*
X435676Y191334D01*
X435538Y191256D01*
X435401Y191175D01*
X435267Y191091D01*
X435134Y191003D01*
X435003Y190912D01*
X434875Y190818D01*
X440654Y185483D02*
X440754Y185544D01*
X440852Y185609D01*
X440948Y185676D01*
X441041Y185747D01*
X441132Y185820D01*
X441221Y185897D01*
X441307Y185976D01*
X441391Y186058D01*
X441472Y186143D01*
X441550Y186230D01*
X441625Y186320D01*
X441698Y186412D01*
X441767Y186507D01*
X441833Y186603D01*
X441896Y186702D01*
X441956Y186803D01*
X442013Y186906D01*
X442066Y187010D01*
X442115Y187116D01*
X442162Y187224D01*
X442204Y187333D01*
X442244Y187443D01*
X442279Y187555D01*
X442311Y187668D01*
X442339Y187782D01*
X442364Y187896D01*
X442385Y188012D01*
X442402Y188128D01*
X442415Y188244D01*
X442424Y188361D01*
X442430Y188478D01*
X442432Y188595D01*
X435764Y182817D02*
X435664Y182756D01*
X435566Y182691D01*
X435470Y182624D01*
X435377Y182553D01*
X435286Y182480D01*
X435197Y182403D01*
X435111Y182324D01*
X435027Y182242D01*
X434946Y182157D01*
X434868Y182070D01*
X434793Y181980D01*
X434720Y181888D01*
X434651Y181793D01*
X434585Y181697D01*
X434522Y181598D01*
X434462Y181497D01*
X434405Y181394D01*
X434352Y181290D01*
X434303Y181184D01*
X434256Y181076D01*
X434214Y180967D01*
X434174Y180857D01*
X434139Y180745D01*
X434107Y180632D01*
X434079Y180518D01*
X434054Y180404D01*
X434033Y180288D01*
X434016Y180172D01*
X434003Y180056D01*
X433994Y179939D01*
X433988Y179822D01*
X433986Y179705D01*
X435764Y182817D02*
X440654Y185484D01*
X426448Y192151D02*
X426448Y176149D01*
X428226Y176149D02*
X424670Y176149D01*
X424670Y192151D02*
X428226Y192151D01*
X417713Y192151D02*
X417713Y176149D01*
X412379Y183261D02*
X417713Y192151D01*
X412379Y183261D02*
X407045Y192151D01*
X407045Y176149D01*
X398956Y176149D02*
X398956Y192151D01*
X393622Y183261D01*
X388288Y192151D01*
X388288Y176149D01*
X59051Y161318D02*
X59051Y156690D01*
X59051Y161318D02*
X59049Y161425D01*
X59043Y161532D01*
X59033Y161638D01*
X59019Y161744D01*
X59002Y161850D01*
X58980Y161954D01*
X58955Y162058D01*
X58925Y162161D01*
X58892Y162263D01*
X58856Y162363D01*
X58815Y162462D01*
X58771Y162559D01*
X58723Y162655D01*
X58672Y162749D01*
X58618Y162841D01*
X58560Y162931D01*
X58498Y163018D01*
X58434Y163104D01*
X58367Y163187D01*
X58296Y163267D01*
X58222Y163345D01*
X58146Y163420D01*
X58067Y163492D01*
X57986Y163561D01*
X57901Y163627D01*
X57815Y163690D01*
X57726Y163749D01*
X57635Y163805D01*
X57542Y163858D01*
X57448Y163908D01*
X57351Y163954D01*
X57253Y163996D01*
X57153Y164034D01*
X57052Y164069D01*
X56950Y164101D01*
X56846Y164128D01*
X56742Y164151D01*
X56637Y164171D01*
X56531Y164187D01*
X56425Y164199D01*
X56318Y164207D01*
X56211Y164211D01*
X56105Y164211D01*
X55998Y164207D01*
X55891Y164199D01*
X55785Y164187D01*
X55679Y164171D01*
X55574Y164151D01*
X55470Y164128D01*
X55366Y164101D01*
X55264Y164069D01*
X55163Y164034D01*
X55063Y163996D01*
X54965Y163954D01*
X54868Y163908D01*
X54774Y163858D01*
X54681Y163805D01*
X54590Y163749D01*
X54501Y163690D01*
X54415Y163627D01*
X54330Y163561D01*
X54249Y163492D01*
X54170Y163420D01*
X54094Y163345D01*
X54020Y163267D01*
X53949Y163187D01*
X53882Y163104D01*
X53818Y163018D01*
X53756Y162931D01*
X53698Y162841D01*
X53644Y162749D01*
X53593Y162655D01*
X53545Y162559D01*
X53501Y162462D01*
X53460Y162363D01*
X53424Y162263D01*
X53391Y162161D01*
X53361Y162058D01*
X53336Y161954D01*
X53314Y161850D01*
X53297Y161744D01*
X53283Y161638D01*
X53273Y161532D01*
X53267Y161425D01*
X53265Y161318D01*
X53266Y161318D02*
X53266Y156690D01*
X53265Y156690D02*
X53267Y156583D01*
X53273Y156476D01*
X53283Y156370D01*
X53297Y156264D01*
X53314Y156158D01*
X53336Y156054D01*
X53361Y155950D01*
X53391Y155847D01*
X53424Y155745D01*
X53460Y155645D01*
X53501Y155546D01*
X53545Y155449D01*
X53593Y155353D01*
X53644Y155259D01*
X53698Y155167D01*
X53756Y155077D01*
X53818Y154990D01*
X53882Y154904D01*
X53949Y154821D01*
X54020Y154741D01*
X54094Y154663D01*
X54170Y154588D01*
X54249Y154516D01*
X54330Y154447D01*
X54415Y154381D01*
X54501Y154318D01*
X54590Y154259D01*
X54681Y154203D01*
X54774Y154150D01*
X54868Y154100D01*
X54965Y154054D01*
X55063Y154012D01*
X55163Y153974D01*
X55264Y153939D01*
X55366Y153907D01*
X55470Y153880D01*
X55574Y153857D01*
X55679Y153837D01*
X55785Y153821D01*
X55891Y153809D01*
X55998Y153801D01*
X56105Y153797D01*
X56211Y153797D01*
X56318Y153801D01*
X56425Y153809D01*
X56531Y153821D01*
X56637Y153837D01*
X56742Y153857D01*
X56846Y153880D01*
X56950Y153907D01*
X57052Y153939D01*
X57153Y153974D01*
X57253Y154012D01*
X57351Y154054D01*
X57448Y154100D01*
X57542Y154150D01*
X57635Y154203D01*
X57726Y154259D01*
X57815Y154318D01*
X57901Y154381D01*
X57986Y154447D01*
X58067Y154516D01*
X58146Y154588D01*
X58222Y154663D01*
X58296Y154741D01*
X58367Y154821D01*
X58434Y154904D01*
X58498Y154990D01*
X58560Y155077D01*
X58618Y155167D01*
X58672Y155259D01*
X58723Y155353D01*
X58771Y155449D01*
X58815Y155546D01*
X58856Y155645D01*
X58892Y155745D01*
X58925Y155847D01*
X58955Y155950D01*
X58980Y156054D01*
X59002Y156158D01*
X59019Y156264D01*
X59033Y156370D01*
X59043Y156476D01*
X59049Y156583D01*
X59051Y156690D01*
X44973Y153797D02*
X44880Y153799D01*
X44787Y153805D01*
X44694Y153814D01*
X44602Y153827D01*
X44510Y153844D01*
X44419Y153864D01*
X44329Y153888D01*
X44240Y153916D01*
X44152Y153947D01*
X44066Y153982D01*
X43981Y154020D01*
X43898Y154062D01*
X43816Y154107D01*
X43736Y154155D01*
X43658Y154207D01*
X43583Y154261D01*
X43510Y154319D01*
X43439Y154379D01*
X43370Y154442D01*
X43304Y154508D01*
X43241Y154577D01*
X43181Y154648D01*
X43123Y154721D01*
X43069Y154796D01*
X43017Y154874D01*
X42969Y154954D01*
X42924Y155036D01*
X42882Y155119D01*
X42844Y155204D01*
X42809Y155290D01*
X42778Y155378D01*
X42750Y155467D01*
X42726Y155557D01*
X42706Y155648D01*
X42689Y155740D01*
X42676Y155832D01*
X42667Y155925D01*
X42661Y156018D01*
X42659Y156111D01*
X44973Y153797D02*
X45111Y153799D01*
X45249Y153805D01*
X45386Y153814D01*
X45523Y153828D01*
X45660Y153846D01*
X45796Y153867D01*
X45932Y153892D01*
X46067Y153921D01*
X46201Y153954D01*
X46333Y153990D01*
X46465Y154030D01*
X46596Y154074D01*
X46725Y154122D01*
X46853Y154173D01*
X46980Y154228D01*
X47105Y154286D01*
X47228Y154348D01*
X47349Y154413D01*
X47469Y154482D01*
X47586Y154554D01*
X47702Y154629D01*
X47815Y154708D01*
X47926Y154790D01*
X48035Y154875D01*
X48141Y154962D01*
X48245Y155053D01*
X48346Y155147D01*
X48444Y155243D01*
X48155Y161897D02*
X48153Y161990D01*
X48147Y162083D01*
X48138Y162176D01*
X48125Y162268D01*
X48108Y162360D01*
X48088Y162451D01*
X48064Y162541D01*
X48036Y162630D01*
X48005Y162718D01*
X47970Y162804D01*
X47932Y162889D01*
X47890Y162972D01*
X47845Y163054D01*
X47797Y163134D01*
X47745Y163212D01*
X47691Y163287D01*
X47633Y163360D01*
X47573Y163431D01*
X47510Y163500D01*
X47444Y163566D01*
X47375Y163629D01*
X47304Y163689D01*
X47231Y163747D01*
X47156Y163801D01*
X47078Y163853D01*
X46998Y163901D01*
X46916Y163946D01*
X46833Y163988D01*
X46748Y164026D01*
X46662Y164061D01*
X46574Y164092D01*
X46485Y164120D01*
X46395Y164144D01*
X46304Y164164D01*
X46212Y164181D01*
X46120Y164194D01*
X46027Y164203D01*
X45934Y164209D01*
X45841Y164211D01*
X45714Y164209D01*
X45587Y164204D01*
X45461Y164194D01*
X45334Y164181D01*
X45209Y164165D01*
X45083Y164144D01*
X44959Y164120D01*
X44835Y164093D01*
X44712Y164062D01*
X44590Y164027D01*
X44469Y163988D01*
X44349Y163946D01*
X44231Y163901D01*
X44113Y163852D01*
X43998Y163800D01*
X43884Y163744D01*
X43771Y163686D01*
X43661Y163623D01*
X43552Y163558D01*
X43445Y163489D01*
X43340Y163418D01*
X43238Y163343D01*
X46998Y159872D02*
X47078Y159922D01*
X47156Y159974D01*
X47231Y160029D01*
X47305Y160088D01*
X47376Y160149D01*
X47444Y160213D01*
X47510Y160280D01*
X47574Y160350D01*
X47634Y160421D01*
X47691Y160496D01*
X47746Y160572D01*
X47797Y160651D01*
X47845Y160731D01*
X47890Y160813D01*
X47932Y160898D01*
X47970Y160983D01*
X48005Y161070D01*
X48036Y161159D01*
X48064Y161249D01*
X48088Y161339D01*
X48108Y161431D01*
X48125Y161523D01*
X48138Y161616D01*
X48148Y161710D01*
X48153Y161803D01*
X48155Y161897D01*
X43816Y158136D02*
X43736Y158086D01*
X43658Y158034D01*
X43582Y157979D01*
X43509Y157920D01*
X43438Y157859D01*
X43370Y157795D01*
X43304Y157728D01*
X43240Y157658D01*
X43180Y157587D01*
X43123Y157512D01*
X43068Y157436D01*
X43017Y157357D01*
X42969Y157277D01*
X42924Y157195D01*
X42882Y157110D01*
X42844Y157025D01*
X42809Y156938D01*
X42778Y156849D01*
X42750Y156759D01*
X42726Y156669D01*
X42706Y156577D01*
X42689Y156485D01*
X42676Y156392D01*
X42666Y156298D01*
X42661Y156205D01*
X42659Y156111D01*
X43816Y158136D02*
X46998Y159872D01*
X37472Y164211D02*
X37472Y153797D01*
X37472Y159583D02*
X31686Y159583D01*
X31686Y164211D02*
X31686Y153797D01*
X24091Y153797D02*
X26406Y164211D01*
X21777Y160740D02*
X24091Y153797D01*
X19463Y153797D02*
X21777Y160740D01*
X17149Y164211D02*
X19463Y153797D01*
D11*
X624840Y151892D02*
X624840Y76708D01*
X797560Y76708D02*
X797560Y151892D01*
X791464Y151892D01*
X783336Y151892D02*
X778764Y151892D01*
X770636Y151892D02*
X766064Y151892D01*
X757936Y151892D02*
X753364Y151892D01*
X745236Y151892D02*
X740664Y151892D01*
X719836Y151892D02*
X702564Y151892D01*
X681736Y151892D02*
X677164Y151892D01*
X669036Y151892D02*
X664464Y151892D01*
X656336Y151892D02*
X651764Y151892D01*
X643636Y151892D02*
X639064Y151892D01*
X630936Y151892D02*
X624840Y151892D01*
X624840Y76708D02*
X630936Y76708D01*
X639064Y76708D02*
X643636Y76708D01*
X651764Y76708D02*
X656336Y76708D01*
X664464Y76708D02*
X669036Y76708D01*
X677164Y76708D02*
X681736Y76708D01*
X740664Y76708D02*
X745236Y76708D01*
X753364Y76708D02*
X757936Y76708D01*
X766064Y76708D02*
X770636Y76708D01*
X778764Y76708D02*
X783336Y76708D01*
X791464Y76708D02*
X797560Y76708D01*
X782828Y97282D02*
X782830Y97428D01*
X782836Y97573D01*
X782846Y97719D01*
X782860Y97864D01*
X782878Y98008D01*
X782899Y98152D01*
X782925Y98296D01*
X782955Y98438D01*
X782988Y98580D01*
X783026Y98721D01*
X783067Y98861D01*
X783112Y98999D01*
X783161Y99137D01*
X783213Y99273D01*
X783270Y99407D01*
X783329Y99540D01*
X783393Y99671D01*
X783460Y99800D01*
X783531Y99928D01*
X783605Y100053D01*
X783682Y100177D01*
X783763Y100298D01*
X783847Y100417D01*
X783934Y100534D01*
X784024Y100648D01*
X784118Y100760D01*
X784214Y100869D01*
X784314Y100976D01*
X784416Y101079D01*
X784521Y101180D01*
X784629Y101278D01*
X784740Y101373D01*
X784853Y101465D01*
X784968Y101554D01*
X785086Y101640D01*
X785206Y101722D01*
X785329Y101801D01*
X785453Y101877D01*
X785580Y101949D01*
X785708Y102018D01*
X785838Y102083D01*
X785970Y102145D01*
X786104Y102203D01*
X786239Y102257D01*
X786376Y102308D01*
X786514Y102355D01*
X786653Y102398D01*
X786793Y102437D01*
X786935Y102473D01*
X787077Y102504D01*
X787220Y102532D01*
X787364Y102556D01*
X787508Y102576D01*
X787653Y102592D01*
X787798Y102604D01*
X787943Y102612D01*
X788089Y102616D01*
X788235Y102616D01*
X788381Y102612D01*
X788526Y102604D01*
X788671Y102592D01*
X788816Y102576D01*
X788960Y102556D01*
X789104Y102532D01*
X789247Y102504D01*
X789389Y102473D01*
X789531Y102437D01*
X789671Y102398D01*
X789810Y102355D01*
X789948Y102308D01*
X790085Y102257D01*
X790220Y102203D01*
X790354Y102145D01*
X790486Y102083D01*
X790616Y102018D01*
X790744Y101949D01*
X790871Y101877D01*
X790995Y101801D01*
X791118Y101722D01*
X791238Y101640D01*
X791356Y101554D01*
X791471Y101465D01*
X791584Y101373D01*
X791695Y101278D01*
X791803Y101180D01*
X791908Y101079D01*
X792010Y100976D01*
X792110Y100869D01*
X792206Y100760D01*
X792300Y100648D01*
X792390Y100534D01*
X792477Y100417D01*
X792561Y100298D01*
X792642Y100177D01*
X792719Y100053D01*
X792793Y99928D01*
X792864Y99800D01*
X792931Y99671D01*
X792995Y99540D01*
X793054Y99407D01*
X793111Y99273D01*
X793163Y99137D01*
X793212Y98999D01*
X793257Y98861D01*
X793298Y98721D01*
X793336Y98580D01*
X793369Y98438D01*
X793399Y98296D01*
X793425Y98152D01*
X793446Y98008D01*
X793464Y97864D01*
X793478Y97719D01*
X793488Y97573D01*
X793494Y97428D01*
X793496Y97282D01*
X793494Y97136D01*
X793488Y96991D01*
X793478Y96845D01*
X793464Y96700D01*
X793446Y96556D01*
X793425Y96412D01*
X793399Y96268D01*
X793369Y96126D01*
X793336Y95984D01*
X793298Y95843D01*
X793257Y95703D01*
X793212Y95565D01*
X793163Y95427D01*
X793111Y95291D01*
X793054Y95157D01*
X792995Y95024D01*
X792931Y94893D01*
X792864Y94764D01*
X792793Y94636D01*
X792719Y94511D01*
X792642Y94387D01*
X792561Y94266D01*
X792477Y94147D01*
X792390Y94030D01*
X792300Y93916D01*
X792206Y93804D01*
X792110Y93695D01*
X792010Y93588D01*
X791908Y93485D01*
X791803Y93384D01*
X791695Y93286D01*
X791584Y93191D01*
X791471Y93099D01*
X791356Y93010D01*
X791238Y92924D01*
X791118Y92842D01*
X790995Y92763D01*
X790871Y92687D01*
X790744Y92615D01*
X790616Y92546D01*
X790486Y92481D01*
X790354Y92419D01*
X790220Y92361D01*
X790085Y92307D01*
X789948Y92256D01*
X789810Y92209D01*
X789671Y92166D01*
X789531Y92127D01*
X789389Y92091D01*
X789247Y92060D01*
X789104Y92032D01*
X788960Y92008D01*
X788816Y91988D01*
X788671Y91972D01*
X788526Y91960D01*
X788381Y91952D01*
X788235Y91948D01*
X788089Y91948D01*
X787943Y91952D01*
X787798Y91960D01*
X787653Y91972D01*
X787508Y91988D01*
X787364Y92008D01*
X787220Y92032D01*
X787077Y92060D01*
X786935Y92091D01*
X786793Y92127D01*
X786653Y92166D01*
X786514Y92209D01*
X786376Y92256D01*
X786239Y92307D01*
X786104Y92361D01*
X785970Y92419D01*
X785838Y92481D01*
X785708Y92546D01*
X785580Y92615D01*
X785453Y92687D01*
X785329Y92763D01*
X785206Y92842D01*
X785086Y92924D01*
X784968Y93010D01*
X784853Y93099D01*
X784740Y93191D01*
X784629Y93286D01*
X784521Y93384D01*
X784416Y93485D01*
X784314Y93588D01*
X784214Y93695D01*
X784118Y93804D01*
X784024Y93916D01*
X783934Y94030D01*
X783847Y94147D01*
X783763Y94266D01*
X783682Y94387D01*
X783605Y94511D01*
X783531Y94636D01*
X783460Y94764D01*
X783393Y94893D01*
X783329Y95024D01*
X783270Y95157D01*
X783213Y95291D01*
X783161Y95427D01*
X783112Y95565D01*
X783067Y95703D01*
X783026Y95843D01*
X782988Y95984D01*
X782955Y96126D01*
X782925Y96268D01*
X782899Y96412D01*
X782878Y96556D01*
X782860Y96700D01*
X782846Y96845D01*
X782836Y96991D01*
X782830Y97136D01*
X782828Y97282D01*
X732536Y151892D02*
X727964Y151892D01*
X694436Y151892D02*
X689864Y151892D01*
X727964Y76708D02*
X732536Y76708D01*
X694436Y76708D02*
X689864Y76708D01*
X702564Y76708D02*
X719836Y76708D01*
D10*
X725299Y106299D02*
X725299Y122301D01*
X727077Y106299D02*
X723521Y106299D01*
X723521Y122301D02*
X727077Y122301D01*
X713727Y106299D02*
X710171Y106299D01*
X713727Y106299D02*
X713843Y106301D01*
X713960Y106307D01*
X714076Y106316D01*
X714191Y106329D01*
X714306Y106346D01*
X714421Y106367D01*
X714534Y106392D01*
X714647Y106420D01*
X714759Y106452D01*
X714870Y106488D01*
X714980Y106527D01*
X715088Y106570D01*
X715195Y106616D01*
X715300Y106666D01*
X715403Y106719D01*
X715505Y106775D01*
X715605Y106835D01*
X715703Y106898D01*
X715798Y106965D01*
X715892Y107034D01*
X715983Y107106D01*
X716072Y107181D01*
X716158Y107260D01*
X716241Y107341D01*
X716322Y107424D01*
X716401Y107510D01*
X716476Y107599D01*
X716548Y107690D01*
X716617Y107784D01*
X716684Y107879D01*
X716747Y107977D01*
X716807Y108077D01*
X716863Y108179D01*
X716916Y108282D01*
X716966Y108387D01*
X717012Y108494D01*
X717055Y108602D01*
X717094Y108712D01*
X717130Y108823D01*
X717162Y108935D01*
X717190Y109048D01*
X717215Y109161D01*
X717236Y109276D01*
X717253Y109391D01*
X717266Y109506D01*
X717275Y109622D01*
X717281Y109739D01*
X717283Y109855D01*
X717283Y118745D01*
X717281Y118861D01*
X717275Y118978D01*
X717266Y119094D01*
X717253Y119209D01*
X717236Y119324D01*
X717215Y119439D01*
X717190Y119552D01*
X717162Y119665D01*
X717130Y119777D01*
X717094Y119888D01*
X717055Y119998D01*
X717012Y120106D01*
X716966Y120213D01*
X716916Y120318D01*
X716863Y120421D01*
X716807Y120523D01*
X716747Y120623D01*
X716684Y120721D01*
X716617Y120816D01*
X716548Y120910D01*
X716476Y121001D01*
X716401Y121090D01*
X716322Y121176D01*
X716241Y121259D01*
X716158Y121340D01*
X716072Y121419D01*
X715983Y121494D01*
X715892Y121566D01*
X715798Y121635D01*
X715703Y121702D01*
X715605Y121765D01*
X715505Y121825D01*
X715403Y121881D01*
X715300Y121934D01*
X715195Y121984D01*
X715088Y122030D01*
X714980Y122073D01*
X714870Y122112D01*
X714759Y122148D01*
X714647Y122180D01*
X714534Y122208D01*
X714421Y122233D01*
X714306Y122254D01*
X714191Y122271D01*
X714076Y122284D01*
X713960Y122293D01*
X713843Y122299D01*
X713727Y122301D01*
X710171Y122301D01*
X704213Y118745D02*
X699768Y122301D01*
X699768Y106299D01*
X704213Y106299D02*
X695323Y106299D01*
D11*
X72390Y76708D02*
X72390Y151892D01*
X245110Y151892D02*
X245110Y76708D01*
X245110Y151892D02*
X239014Y151892D01*
X230886Y151892D02*
X226314Y151892D01*
X218186Y151892D02*
X213614Y151892D01*
X205486Y151892D02*
X200914Y151892D01*
X192786Y151892D02*
X188214Y151892D01*
X180086Y151892D02*
X137414Y151892D01*
X129286Y151892D02*
X124714Y151892D01*
X116586Y151892D02*
X112014Y151892D01*
X103886Y151892D02*
X99314Y151892D01*
X91186Y151892D02*
X86614Y151892D01*
X78486Y151892D02*
X72390Y151892D01*
X72390Y76708D02*
X78486Y76708D01*
X86614Y76708D02*
X91186Y76708D01*
X99314Y76708D02*
X103886Y76708D01*
X112014Y76708D02*
X116586Y76708D01*
X124714Y76708D02*
X129286Y76708D01*
X137414Y76708D02*
X180086Y76708D01*
X188214Y76708D02*
X192786Y76708D01*
X200914Y76708D02*
X205486Y76708D01*
X213614Y76708D02*
X218186Y76708D01*
X226314Y76708D02*
X230886Y76708D01*
X239014Y76708D02*
X245110Y76708D01*
X230378Y97282D02*
X230380Y97428D01*
X230386Y97573D01*
X230396Y97719D01*
X230410Y97864D01*
X230428Y98008D01*
X230449Y98152D01*
X230475Y98296D01*
X230505Y98438D01*
X230538Y98580D01*
X230576Y98721D01*
X230617Y98861D01*
X230662Y98999D01*
X230711Y99137D01*
X230763Y99273D01*
X230820Y99407D01*
X230879Y99540D01*
X230943Y99671D01*
X231010Y99800D01*
X231081Y99928D01*
X231155Y100053D01*
X231232Y100177D01*
X231313Y100298D01*
X231397Y100417D01*
X231484Y100534D01*
X231574Y100648D01*
X231668Y100760D01*
X231764Y100869D01*
X231864Y100976D01*
X231966Y101079D01*
X232071Y101180D01*
X232179Y101278D01*
X232290Y101373D01*
X232403Y101465D01*
X232518Y101554D01*
X232636Y101640D01*
X232756Y101722D01*
X232879Y101801D01*
X233003Y101877D01*
X233130Y101949D01*
X233258Y102018D01*
X233388Y102083D01*
X233520Y102145D01*
X233654Y102203D01*
X233789Y102257D01*
X233926Y102308D01*
X234064Y102355D01*
X234203Y102398D01*
X234343Y102437D01*
X234485Y102473D01*
X234627Y102504D01*
X234770Y102532D01*
X234914Y102556D01*
X235058Y102576D01*
X235203Y102592D01*
X235348Y102604D01*
X235493Y102612D01*
X235639Y102616D01*
X235785Y102616D01*
X235931Y102612D01*
X236076Y102604D01*
X236221Y102592D01*
X236366Y102576D01*
X236510Y102556D01*
X236654Y102532D01*
X236797Y102504D01*
X236939Y102473D01*
X237081Y102437D01*
X237221Y102398D01*
X237360Y102355D01*
X237498Y102308D01*
X237635Y102257D01*
X237770Y102203D01*
X237904Y102145D01*
X238036Y102083D01*
X238166Y102018D01*
X238294Y101949D01*
X238421Y101877D01*
X238545Y101801D01*
X238668Y101722D01*
X238788Y101640D01*
X238906Y101554D01*
X239021Y101465D01*
X239134Y101373D01*
X239245Y101278D01*
X239353Y101180D01*
X239458Y101079D01*
X239560Y100976D01*
X239660Y100869D01*
X239756Y100760D01*
X239850Y100648D01*
X239940Y100534D01*
X240027Y100417D01*
X240111Y100298D01*
X240192Y100177D01*
X240269Y100053D01*
X240343Y99928D01*
X240414Y99800D01*
X240481Y99671D01*
X240545Y99540D01*
X240604Y99407D01*
X240661Y99273D01*
X240713Y99137D01*
X240762Y98999D01*
X240807Y98861D01*
X240848Y98721D01*
X240886Y98580D01*
X240919Y98438D01*
X240949Y98296D01*
X240975Y98152D01*
X240996Y98008D01*
X241014Y97864D01*
X241028Y97719D01*
X241038Y97573D01*
X241044Y97428D01*
X241046Y97282D01*
X241044Y97136D01*
X241038Y96991D01*
X241028Y96845D01*
X241014Y96700D01*
X240996Y96556D01*
X240975Y96412D01*
X240949Y96268D01*
X240919Y96126D01*
X240886Y95984D01*
X240848Y95843D01*
X240807Y95703D01*
X240762Y95565D01*
X240713Y95427D01*
X240661Y95291D01*
X240604Y95157D01*
X240545Y95024D01*
X240481Y94893D01*
X240414Y94764D01*
X240343Y94636D01*
X240269Y94511D01*
X240192Y94387D01*
X240111Y94266D01*
X240027Y94147D01*
X239940Y94030D01*
X239850Y93916D01*
X239756Y93804D01*
X239660Y93695D01*
X239560Y93588D01*
X239458Y93485D01*
X239353Y93384D01*
X239245Y93286D01*
X239134Y93191D01*
X239021Y93099D01*
X238906Y93010D01*
X238788Y92924D01*
X238668Y92842D01*
X238545Y92763D01*
X238421Y92687D01*
X238294Y92615D01*
X238166Y92546D01*
X238036Y92481D01*
X237904Y92419D01*
X237770Y92361D01*
X237635Y92307D01*
X237498Y92256D01*
X237360Y92209D01*
X237221Y92166D01*
X237081Y92127D01*
X236939Y92091D01*
X236797Y92060D01*
X236654Y92032D01*
X236510Y92008D01*
X236366Y91988D01*
X236221Y91972D01*
X236076Y91960D01*
X235931Y91952D01*
X235785Y91948D01*
X235639Y91948D01*
X235493Y91952D01*
X235348Y91960D01*
X235203Y91972D01*
X235058Y91988D01*
X234914Y92008D01*
X234770Y92032D01*
X234627Y92060D01*
X234485Y92091D01*
X234343Y92127D01*
X234203Y92166D01*
X234064Y92209D01*
X233926Y92256D01*
X233789Y92307D01*
X233654Y92361D01*
X233520Y92419D01*
X233388Y92481D01*
X233258Y92546D01*
X233130Y92615D01*
X233003Y92687D01*
X232879Y92763D01*
X232756Y92842D01*
X232636Y92924D01*
X232518Y93010D01*
X232403Y93099D01*
X232290Y93191D01*
X232179Y93286D01*
X232071Y93384D01*
X231966Y93485D01*
X231864Y93588D01*
X231764Y93695D01*
X231668Y93804D01*
X231574Y93916D01*
X231484Y94030D01*
X231397Y94147D01*
X231313Y94266D01*
X231232Y94387D01*
X231155Y94511D01*
X231081Y94636D01*
X231010Y94764D01*
X230943Y94893D01*
X230879Y95024D01*
X230820Y95157D01*
X230763Y95291D01*
X230711Y95427D01*
X230662Y95565D01*
X230617Y95703D01*
X230576Y95843D01*
X230538Y95984D01*
X230505Y96126D01*
X230475Y96268D01*
X230449Y96412D01*
X230428Y96556D01*
X230410Y96700D01*
X230396Y96845D01*
X230386Y96991D01*
X230380Y97136D01*
X230378Y97282D01*
D10*
X172849Y106299D02*
X172849Y122301D01*
X174627Y106299D02*
X171071Y106299D01*
X171071Y122301D02*
X174627Y122301D01*
X161277Y106299D02*
X157721Y106299D01*
X161277Y106299D02*
X161393Y106301D01*
X161510Y106307D01*
X161626Y106316D01*
X161741Y106329D01*
X161856Y106346D01*
X161971Y106367D01*
X162084Y106392D01*
X162197Y106420D01*
X162309Y106452D01*
X162420Y106488D01*
X162530Y106527D01*
X162638Y106570D01*
X162745Y106616D01*
X162850Y106666D01*
X162953Y106719D01*
X163055Y106775D01*
X163155Y106835D01*
X163253Y106898D01*
X163348Y106965D01*
X163442Y107034D01*
X163533Y107106D01*
X163622Y107181D01*
X163708Y107260D01*
X163791Y107341D01*
X163872Y107424D01*
X163951Y107510D01*
X164026Y107599D01*
X164098Y107690D01*
X164167Y107784D01*
X164234Y107879D01*
X164297Y107977D01*
X164357Y108077D01*
X164413Y108179D01*
X164466Y108282D01*
X164516Y108387D01*
X164562Y108494D01*
X164605Y108602D01*
X164644Y108712D01*
X164680Y108823D01*
X164712Y108935D01*
X164740Y109048D01*
X164765Y109161D01*
X164786Y109276D01*
X164803Y109391D01*
X164816Y109506D01*
X164825Y109622D01*
X164831Y109739D01*
X164833Y109855D01*
X164833Y118745D01*
X164831Y118861D01*
X164825Y118978D01*
X164816Y119094D01*
X164803Y119209D01*
X164786Y119324D01*
X164765Y119439D01*
X164740Y119552D01*
X164712Y119665D01*
X164680Y119777D01*
X164644Y119888D01*
X164605Y119998D01*
X164562Y120106D01*
X164516Y120213D01*
X164466Y120318D01*
X164413Y120421D01*
X164357Y120523D01*
X164297Y120623D01*
X164234Y120721D01*
X164167Y120816D01*
X164098Y120910D01*
X164026Y121001D01*
X163951Y121090D01*
X163872Y121176D01*
X163791Y121259D01*
X163708Y121340D01*
X163622Y121419D01*
X163533Y121494D01*
X163442Y121566D01*
X163348Y121635D01*
X163253Y121702D01*
X163155Y121765D01*
X163055Y121825D01*
X162953Y121881D01*
X162850Y121934D01*
X162745Y121984D01*
X162638Y122030D01*
X162530Y122073D01*
X162420Y122112D01*
X162309Y122148D01*
X162197Y122180D01*
X162084Y122208D01*
X161971Y122233D01*
X161856Y122254D01*
X161741Y122271D01*
X161626Y122284D01*
X161510Y122293D01*
X161393Y122299D01*
X161277Y122301D01*
X157721Y122301D01*
X151763Y106299D02*
X147318Y106299D01*
X147186Y106301D01*
X147055Y106307D01*
X146923Y106317D01*
X146792Y106330D01*
X146662Y106348D01*
X146532Y106369D01*
X146402Y106394D01*
X146274Y106423D01*
X146146Y106456D01*
X146020Y106493D01*
X145894Y106533D01*
X145770Y106577D01*
X145647Y106625D01*
X145526Y106676D01*
X145406Y106731D01*
X145288Y106789D01*
X145172Y106851D01*
X145058Y106917D01*
X144945Y106985D01*
X144835Y107057D01*
X144727Y107132D01*
X144621Y107211D01*
X144517Y107292D01*
X144416Y107377D01*
X144318Y107464D01*
X144222Y107555D01*
X144129Y107648D01*
X144038Y107744D01*
X143951Y107842D01*
X143866Y107943D01*
X143785Y108047D01*
X143706Y108153D01*
X143631Y108261D01*
X143559Y108371D01*
X143491Y108484D01*
X143425Y108598D01*
X143363Y108714D01*
X143305Y108832D01*
X143250Y108952D01*
X143199Y109073D01*
X143151Y109196D01*
X143107Y109320D01*
X143067Y109446D01*
X143030Y109572D01*
X142997Y109700D01*
X142968Y109828D01*
X142943Y109958D01*
X142922Y110088D01*
X142904Y110218D01*
X142891Y110349D01*
X142881Y110481D01*
X142875Y110612D01*
X142873Y110744D01*
X142875Y110876D01*
X142881Y111007D01*
X142891Y111139D01*
X142904Y111270D01*
X142922Y111400D01*
X142943Y111530D01*
X142968Y111660D01*
X142997Y111788D01*
X143030Y111916D01*
X143067Y112042D01*
X143107Y112168D01*
X143151Y112292D01*
X143199Y112415D01*
X143250Y112536D01*
X143305Y112656D01*
X143363Y112774D01*
X143425Y112890D01*
X143491Y113004D01*
X143559Y113117D01*
X143631Y113227D01*
X143706Y113335D01*
X143785Y113441D01*
X143866Y113545D01*
X143951Y113646D01*
X144038Y113744D01*
X144129Y113840D01*
X144222Y113933D01*
X144318Y114024D01*
X144416Y114111D01*
X144517Y114196D01*
X144621Y114277D01*
X144727Y114356D01*
X144835Y114431D01*
X144945Y114503D01*
X145058Y114571D01*
X145172Y114637D01*
X145288Y114699D01*
X145406Y114757D01*
X145526Y114812D01*
X145647Y114863D01*
X145770Y114911D01*
X145894Y114955D01*
X146020Y114995D01*
X146146Y115032D01*
X146274Y115065D01*
X146402Y115094D01*
X146532Y115119D01*
X146662Y115140D01*
X146792Y115158D01*
X146923Y115171D01*
X147055Y115181D01*
X147186Y115187D01*
X147318Y115189D01*
X146429Y122301D02*
X151763Y122301D01*
X146429Y122301D02*
X146311Y122299D01*
X146194Y122293D01*
X146077Y122284D01*
X145960Y122270D01*
X145844Y122253D01*
X145728Y122231D01*
X145613Y122206D01*
X145499Y122177D01*
X145386Y122145D01*
X145274Y122108D01*
X145164Y122068D01*
X145055Y122025D01*
X144947Y121977D01*
X144841Y121927D01*
X144737Y121872D01*
X144634Y121815D01*
X144534Y121754D01*
X144435Y121689D01*
X144339Y121622D01*
X144245Y121551D01*
X144153Y121477D01*
X144064Y121401D01*
X143978Y121321D01*
X143894Y121239D01*
X143813Y121153D01*
X143735Y121066D01*
X143659Y120975D01*
X143587Y120882D01*
X143518Y120787D01*
X143452Y120690D01*
X143389Y120590D01*
X143330Y120489D01*
X143274Y120386D01*
X143222Y120280D01*
X143173Y120173D01*
X143127Y120065D01*
X143085Y119955D01*
X143047Y119844D01*
X143013Y119731D01*
X142982Y119618D01*
X142955Y119503D01*
X142932Y119388D01*
X142912Y119272D01*
X142897Y119156D01*
X142885Y119039D01*
X142877Y118921D01*
X142873Y118804D01*
X142873Y118686D01*
X142877Y118569D01*
X142885Y118451D01*
X142897Y118334D01*
X142912Y118218D01*
X142932Y118102D01*
X142955Y117987D01*
X142982Y117872D01*
X143013Y117759D01*
X143047Y117646D01*
X143085Y117535D01*
X143127Y117425D01*
X143173Y117317D01*
X143222Y117210D01*
X143274Y117104D01*
X143330Y117001D01*
X143389Y116900D01*
X143452Y116800D01*
X143518Y116703D01*
X143587Y116608D01*
X143659Y116515D01*
X143735Y116424D01*
X143813Y116337D01*
X143894Y116251D01*
X143978Y116169D01*
X144064Y116089D01*
X144153Y116013D01*
X144245Y115939D01*
X144339Y115868D01*
X144435Y115801D01*
X144534Y115736D01*
X144634Y115675D01*
X144737Y115618D01*
X144841Y115563D01*
X144947Y115513D01*
X145055Y115465D01*
X145164Y115422D01*
X145274Y115382D01*
X145386Y115345D01*
X145499Y115313D01*
X145613Y115284D01*
X145728Y115259D01*
X145844Y115237D01*
X145960Y115220D01*
X146077Y115206D01*
X146194Y115197D01*
X146311Y115191D01*
X146429Y115189D01*
X149985Y115189D01*
D11*
X351790Y151892D02*
X351790Y76708D01*
X524510Y76708D02*
X524510Y151892D01*
X518414Y151892D01*
X510286Y151892D02*
X505714Y151892D01*
X497586Y151892D02*
X493014Y151892D01*
X484886Y151892D02*
X480314Y151892D01*
X472186Y151892D02*
X467614Y151892D01*
X446786Y151892D02*
X429514Y151892D01*
X408686Y151892D02*
X404114Y151892D01*
X395986Y151892D02*
X391414Y151892D01*
X383286Y151892D02*
X378714Y151892D01*
X370586Y151892D02*
X366014Y151892D01*
X357886Y151892D02*
X351790Y151892D01*
X351790Y76708D02*
X357886Y76708D01*
X366014Y76708D02*
X370586Y76708D01*
X378714Y76708D02*
X383286Y76708D01*
X391414Y76708D02*
X395986Y76708D01*
X404114Y76708D02*
X408686Y76708D01*
X467614Y76708D02*
X472186Y76708D01*
X480314Y76708D02*
X484886Y76708D01*
X493014Y76708D02*
X497586Y76708D01*
X505714Y76708D02*
X510286Y76708D01*
X518414Y76708D02*
X524510Y76708D01*
X509778Y97282D02*
X509780Y97428D01*
X509786Y97573D01*
X509796Y97719D01*
X509810Y97864D01*
X509828Y98008D01*
X509849Y98152D01*
X509875Y98296D01*
X509905Y98438D01*
X509938Y98580D01*
X509976Y98721D01*
X510017Y98861D01*
X510062Y98999D01*
X510111Y99137D01*
X510163Y99273D01*
X510220Y99407D01*
X510279Y99540D01*
X510343Y99671D01*
X510410Y99800D01*
X510481Y99928D01*
X510555Y100053D01*
X510632Y100177D01*
X510713Y100298D01*
X510797Y100417D01*
X510884Y100534D01*
X510974Y100648D01*
X511068Y100760D01*
X511164Y100869D01*
X511264Y100976D01*
X511366Y101079D01*
X511471Y101180D01*
X511579Y101278D01*
X511690Y101373D01*
X511803Y101465D01*
X511918Y101554D01*
X512036Y101640D01*
X512156Y101722D01*
X512279Y101801D01*
X512403Y101877D01*
X512530Y101949D01*
X512658Y102018D01*
X512788Y102083D01*
X512920Y102145D01*
X513054Y102203D01*
X513189Y102257D01*
X513326Y102308D01*
X513464Y102355D01*
X513603Y102398D01*
X513743Y102437D01*
X513885Y102473D01*
X514027Y102504D01*
X514170Y102532D01*
X514314Y102556D01*
X514458Y102576D01*
X514603Y102592D01*
X514748Y102604D01*
X514893Y102612D01*
X515039Y102616D01*
X515185Y102616D01*
X515331Y102612D01*
X515476Y102604D01*
X515621Y102592D01*
X515766Y102576D01*
X515910Y102556D01*
X516054Y102532D01*
X516197Y102504D01*
X516339Y102473D01*
X516481Y102437D01*
X516621Y102398D01*
X516760Y102355D01*
X516898Y102308D01*
X517035Y102257D01*
X517170Y102203D01*
X517304Y102145D01*
X517436Y102083D01*
X517566Y102018D01*
X517694Y101949D01*
X517821Y101877D01*
X517945Y101801D01*
X518068Y101722D01*
X518188Y101640D01*
X518306Y101554D01*
X518421Y101465D01*
X518534Y101373D01*
X518645Y101278D01*
X518753Y101180D01*
X518858Y101079D01*
X518960Y100976D01*
X519060Y100869D01*
X519156Y100760D01*
X519250Y100648D01*
X519340Y100534D01*
X519427Y100417D01*
X519511Y100298D01*
X519592Y100177D01*
X519669Y100053D01*
X519743Y99928D01*
X519814Y99800D01*
X519881Y99671D01*
X519945Y99540D01*
X520004Y99407D01*
X520061Y99273D01*
X520113Y99137D01*
X520162Y98999D01*
X520207Y98861D01*
X520248Y98721D01*
X520286Y98580D01*
X520319Y98438D01*
X520349Y98296D01*
X520375Y98152D01*
X520396Y98008D01*
X520414Y97864D01*
X520428Y97719D01*
X520438Y97573D01*
X520444Y97428D01*
X520446Y97282D01*
X520444Y97136D01*
X520438Y96991D01*
X520428Y96845D01*
X520414Y96700D01*
X520396Y96556D01*
X520375Y96412D01*
X520349Y96268D01*
X520319Y96126D01*
X520286Y95984D01*
X520248Y95843D01*
X520207Y95703D01*
X520162Y95565D01*
X520113Y95427D01*
X520061Y95291D01*
X520004Y95157D01*
X519945Y95024D01*
X519881Y94893D01*
X519814Y94764D01*
X519743Y94636D01*
X519669Y94511D01*
X519592Y94387D01*
X519511Y94266D01*
X519427Y94147D01*
X519340Y94030D01*
X519250Y93916D01*
X519156Y93804D01*
X519060Y93695D01*
X518960Y93588D01*
X518858Y93485D01*
X518753Y93384D01*
X518645Y93286D01*
X518534Y93191D01*
X518421Y93099D01*
X518306Y93010D01*
X518188Y92924D01*
X518068Y92842D01*
X517945Y92763D01*
X517821Y92687D01*
X517694Y92615D01*
X517566Y92546D01*
X517436Y92481D01*
X517304Y92419D01*
X517170Y92361D01*
X517035Y92307D01*
X516898Y92256D01*
X516760Y92209D01*
X516621Y92166D01*
X516481Y92127D01*
X516339Y92091D01*
X516197Y92060D01*
X516054Y92032D01*
X515910Y92008D01*
X515766Y91988D01*
X515621Y91972D01*
X515476Y91960D01*
X515331Y91952D01*
X515185Y91948D01*
X515039Y91948D01*
X514893Y91952D01*
X514748Y91960D01*
X514603Y91972D01*
X514458Y91988D01*
X514314Y92008D01*
X514170Y92032D01*
X514027Y92060D01*
X513885Y92091D01*
X513743Y92127D01*
X513603Y92166D01*
X513464Y92209D01*
X513326Y92256D01*
X513189Y92307D01*
X513054Y92361D01*
X512920Y92419D01*
X512788Y92481D01*
X512658Y92546D01*
X512530Y92615D01*
X512403Y92687D01*
X512279Y92763D01*
X512156Y92842D01*
X512036Y92924D01*
X511918Y93010D01*
X511803Y93099D01*
X511690Y93191D01*
X511579Y93286D01*
X511471Y93384D01*
X511366Y93485D01*
X511264Y93588D01*
X511164Y93695D01*
X511068Y93804D01*
X510974Y93916D01*
X510884Y94030D01*
X510797Y94147D01*
X510713Y94266D01*
X510632Y94387D01*
X510555Y94511D01*
X510481Y94636D01*
X510410Y94764D01*
X510343Y94893D01*
X510279Y95024D01*
X510220Y95157D01*
X510163Y95291D01*
X510111Y95427D01*
X510062Y95565D01*
X510017Y95703D01*
X509976Y95843D01*
X509938Y95984D01*
X509905Y96126D01*
X509875Y96268D01*
X509849Y96412D01*
X509828Y96556D01*
X509810Y96700D01*
X509796Y96845D01*
X509786Y96991D01*
X509780Y97136D01*
X509778Y97282D01*
X459486Y151892D02*
X454914Y151892D01*
X421386Y151892D02*
X416814Y151892D01*
X454914Y76708D02*
X459486Y76708D01*
X421386Y76708D02*
X416814Y76708D01*
X429514Y76708D02*
X446786Y76708D01*
D10*
X452249Y106299D02*
X452249Y122301D01*
X454027Y106299D02*
X450471Y106299D01*
X450471Y122301D02*
X454027Y122301D01*
X440677Y106299D02*
X437121Y106299D01*
X440677Y106299D02*
X440793Y106301D01*
X440910Y106307D01*
X441026Y106316D01*
X441141Y106329D01*
X441256Y106346D01*
X441371Y106367D01*
X441484Y106392D01*
X441597Y106420D01*
X441709Y106452D01*
X441820Y106488D01*
X441930Y106527D01*
X442038Y106570D01*
X442145Y106616D01*
X442250Y106666D01*
X442353Y106719D01*
X442455Y106775D01*
X442555Y106835D01*
X442653Y106898D01*
X442748Y106965D01*
X442842Y107034D01*
X442933Y107106D01*
X443022Y107181D01*
X443108Y107260D01*
X443191Y107341D01*
X443272Y107424D01*
X443351Y107510D01*
X443426Y107599D01*
X443498Y107690D01*
X443567Y107784D01*
X443634Y107879D01*
X443697Y107977D01*
X443757Y108077D01*
X443813Y108179D01*
X443866Y108282D01*
X443916Y108387D01*
X443962Y108494D01*
X444005Y108602D01*
X444044Y108712D01*
X444080Y108823D01*
X444112Y108935D01*
X444140Y109048D01*
X444165Y109161D01*
X444186Y109276D01*
X444203Y109391D01*
X444216Y109506D01*
X444225Y109622D01*
X444231Y109739D01*
X444233Y109855D01*
X444233Y118745D01*
X444231Y118861D01*
X444225Y118978D01*
X444216Y119094D01*
X444203Y119209D01*
X444186Y119324D01*
X444165Y119439D01*
X444140Y119552D01*
X444112Y119665D01*
X444080Y119777D01*
X444044Y119888D01*
X444005Y119998D01*
X443962Y120106D01*
X443916Y120213D01*
X443866Y120318D01*
X443813Y120421D01*
X443757Y120523D01*
X443697Y120623D01*
X443634Y120721D01*
X443567Y120816D01*
X443498Y120910D01*
X443426Y121001D01*
X443351Y121090D01*
X443272Y121176D01*
X443191Y121259D01*
X443108Y121340D01*
X443022Y121419D01*
X442933Y121494D01*
X442842Y121566D01*
X442748Y121635D01*
X442653Y121702D01*
X442555Y121765D01*
X442455Y121825D01*
X442353Y121881D01*
X442250Y121934D01*
X442145Y121984D01*
X442038Y122030D01*
X441930Y122073D01*
X441820Y122112D01*
X441709Y122148D01*
X441597Y122180D01*
X441484Y122208D01*
X441371Y122233D01*
X441256Y122254D01*
X441141Y122271D01*
X441026Y122284D01*
X440910Y122293D01*
X440793Y122299D01*
X440677Y122301D01*
X437121Y122301D01*
X426274Y122302D02*
X426148Y122300D01*
X426023Y122294D01*
X425897Y122284D01*
X425773Y122270D01*
X425648Y122253D01*
X425524Y122231D01*
X425401Y122206D01*
X425279Y122176D01*
X425158Y122143D01*
X425038Y122106D01*
X424919Y122065D01*
X424801Y122021D01*
X424685Y121973D01*
X424570Y121921D01*
X424458Y121866D01*
X424347Y121807D01*
X424237Y121745D01*
X424130Y121679D01*
X424025Y121610D01*
X423922Y121538D01*
X423822Y121462D01*
X423724Y121384D01*
X423628Y121302D01*
X423535Y121218D01*
X423445Y121130D01*
X423357Y121040D01*
X423273Y120947D01*
X423191Y120851D01*
X423113Y120753D01*
X423037Y120653D01*
X422965Y120550D01*
X422896Y120445D01*
X422830Y120338D01*
X422768Y120228D01*
X422709Y120117D01*
X422654Y120005D01*
X422602Y119890D01*
X422554Y119774D01*
X422510Y119656D01*
X422469Y119537D01*
X422432Y119417D01*
X422399Y119296D01*
X422369Y119174D01*
X422344Y119051D01*
X422322Y118927D01*
X422305Y118802D01*
X422291Y118678D01*
X422281Y118552D01*
X422275Y118427D01*
X422273Y118301D01*
X426274Y122301D02*
X426415Y122299D01*
X426555Y122293D01*
X426695Y122284D01*
X426835Y122270D01*
X426974Y122253D01*
X427113Y122232D01*
X427252Y122207D01*
X427389Y122179D01*
X427526Y122146D01*
X427662Y122110D01*
X427797Y122070D01*
X427930Y122027D01*
X428063Y121980D01*
X428194Y121929D01*
X428323Y121875D01*
X428451Y121817D01*
X428578Y121756D01*
X428703Y121691D01*
X428825Y121623D01*
X428946Y121552D01*
X429066Y121477D01*
X429182Y121399D01*
X429297Y121318D01*
X429410Y121234D01*
X429520Y121146D01*
X429628Y121056D01*
X429733Y120963D01*
X429835Y120867D01*
X429935Y120768D01*
X430033Y120667D01*
X430127Y120563D01*
X430219Y120456D01*
X430307Y120347D01*
X430393Y120236D01*
X430475Y120122D01*
X430555Y120006D01*
X430631Y119888D01*
X430704Y119768D01*
X430773Y119646D01*
X430840Y119522D01*
X430903Y119396D01*
X430962Y119269D01*
X431018Y119140D01*
X431070Y119010D01*
X431119Y118878D01*
X431164Y118745D01*
X423607Y115189D02*
X423515Y115280D01*
X423425Y115373D01*
X423339Y115468D01*
X423255Y115566D01*
X423175Y115667D01*
X423097Y115770D01*
X423023Y115875D01*
X422952Y115983D01*
X422884Y116092D01*
X422820Y116204D01*
X422758Y116317D01*
X422701Y116432D01*
X422646Y116549D01*
X422595Y116668D01*
X422548Y116788D01*
X422505Y116909D01*
X422465Y117031D01*
X422429Y117155D01*
X422396Y117280D01*
X422367Y117405D01*
X422342Y117532D01*
X422321Y117659D01*
X422304Y117787D01*
X422290Y117915D01*
X422281Y118043D01*
X422275Y118172D01*
X422273Y118301D01*
X423607Y115189D02*
X431163Y106299D01*
X422273Y106299D01*
X273939Y109127D02*
X273939Y111441D01*
X273939Y109127D02*
X273941Y109034D01*
X273947Y108941D01*
X273956Y108848D01*
X273969Y108756D01*
X273986Y108664D01*
X274006Y108573D01*
X274030Y108483D01*
X274058Y108394D01*
X274089Y108306D01*
X274124Y108220D01*
X274162Y108135D01*
X274204Y108052D01*
X274249Y107970D01*
X274297Y107890D01*
X274349Y107812D01*
X274403Y107737D01*
X274461Y107664D01*
X274521Y107593D01*
X274584Y107524D01*
X274650Y107458D01*
X274719Y107395D01*
X274790Y107335D01*
X274863Y107277D01*
X274938Y107223D01*
X275016Y107171D01*
X275096Y107123D01*
X275178Y107078D01*
X275261Y107036D01*
X275346Y106998D01*
X275432Y106963D01*
X275520Y106932D01*
X275609Y106904D01*
X275699Y106880D01*
X275790Y106860D01*
X275882Y106843D01*
X275974Y106830D01*
X276067Y106821D01*
X276160Y106815D01*
X276253Y106813D01*
X282039Y106813D01*
X282135Y106815D01*
X282230Y106821D01*
X282325Y106831D01*
X282420Y106845D01*
X282514Y106862D01*
X282607Y106884D01*
X282699Y106909D01*
X282790Y106938D01*
X282880Y106971D01*
X282969Y107008D01*
X283055Y107048D01*
X283140Y107092D01*
X283223Y107139D01*
X283305Y107190D01*
X283384Y107244D01*
X283460Y107301D01*
X283535Y107361D01*
X283606Y107425D01*
X283675Y107491D01*
X283741Y107560D01*
X283805Y107631D01*
X283865Y107706D01*
X283922Y107782D01*
X283976Y107861D01*
X284027Y107942D01*
X284074Y108026D01*
X284118Y108111D01*
X284158Y108197D01*
X284195Y108286D01*
X284228Y108376D01*
X284257Y108467D01*
X284282Y108559D01*
X284304Y108652D01*
X284321Y108746D01*
X284335Y108841D01*
X284345Y108936D01*
X284351Y109031D01*
X284353Y109127D01*
X284353Y111441D01*
X273939Y116002D02*
X273939Y118894D01*
X273941Y119001D01*
X273947Y119108D01*
X273957Y119214D01*
X273971Y119320D01*
X273988Y119426D01*
X274010Y119530D01*
X274035Y119634D01*
X274065Y119737D01*
X274098Y119839D01*
X274134Y119939D01*
X274175Y120038D01*
X274219Y120135D01*
X274267Y120231D01*
X274318Y120325D01*
X274372Y120417D01*
X274430Y120507D01*
X274492Y120594D01*
X274556Y120680D01*
X274623Y120763D01*
X274694Y120843D01*
X274768Y120921D01*
X274844Y120996D01*
X274923Y121068D01*
X275004Y121137D01*
X275089Y121203D01*
X275175Y121266D01*
X275264Y121325D01*
X275355Y121381D01*
X275448Y121434D01*
X275542Y121484D01*
X275639Y121530D01*
X275737Y121572D01*
X275837Y121610D01*
X275938Y121645D01*
X276040Y121677D01*
X276144Y121704D01*
X276248Y121727D01*
X276353Y121747D01*
X276459Y121763D01*
X276565Y121775D01*
X276672Y121783D01*
X276779Y121787D01*
X276885Y121787D01*
X276992Y121783D01*
X277099Y121775D01*
X277205Y121763D01*
X277311Y121747D01*
X277416Y121727D01*
X277520Y121704D01*
X277624Y121677D01*
X277726Y121645D01*
X277827Y121610D01*
X277927Y121572D01*
X278025Y121530D01*
X278122Y121484D01*
X278216Y121434D01*
X278309Y121381D01*
X278400Y121325D01*
X278489Y121266D01*
X278575Y121203D01*
X278660Y121137D01*
X278741Y121068D01*
X278820Y120996D01*
X278896Y120921D01*
X278970Y120843D01*
X279041Y120763D01*
X279108Y120680D01*
X279172Y120594D01*
X279234Y120507D01*
X279292Y120417D01*
X279346Y120325D01*
X279397Y120231D01*
X279445Y120135D01*
X279489Y120038D01*
X279530Y119939D01*
X279566Y119839D01*
X279599Y119737D01*
X279629Y119634D01*
X279654Y119530D01*
X279676Y119426D01*
X279693Y119320D01*
X279707Y119214D01*
X279717Y119108D01*
X279723Y119001D01*
X279725Y118894D01*
X284353Y119473D02*
X284353Y116002D01*
X284353Y119473D02*
X284351Y119567D01*
X284345Y119662D01*
X284336Y119756D01*
X284322Y119849D01*
X284305Y119942D01*
X284284Y120034D01*
X284259Y120125D01*
X284231Y120215D01*
X284199Y120304D01*
X284163Y120391D01*
X284124Y120477D01*
X284081Y120561D01*
X284035Y120644D01*
X283986Y120724D01*
X283933Y120802D01*
X283877Y120879D01*
X283818Y120952D01*
X283757Y121024D01*
X283692Y121092D01*
X283624Y121159D01*
X283554Y121222D01*
X283482Y121282D01*
X283407Y121340D01*
X283329Y121394D01*
X283250Y121445D01*
X283169Y121493D01*
X283085Y121537D01*
X283000Y121578D01*
X282914Y121615D01*
X282826Y121649D01*
X282736Y121680D01*
X282646Y121706D01*
X282554Y121729D01*
X282461Y121748D01*
X282368Y121763D01*
X282275Y121775D01*
X282181Y121783D01*
X282086Y121787D01*
X281992Y121787D01*
X281897Y121783D01*
X281803Y121775D01*
X281710Y121763D01*
X281617Y121748D01*
X281524Y121729D01*
X281432Y121706D01*
X281342Y121680D01*
X281252Y121649D01*
X281164Y121615D01*
X281078Y121578D01*
X280993Y121537D01*
X280909Y121493D01*
X280828Y121445D01*
X280749Y121394D01*
X280671Y121340D01*
X280596Y121282D01*
X280524Y121222D01*
X280454Y121159D01*
X280386Y121092D01*
X280321Y121024D01*
X280260Y120952D01*
X280201Y120879D01*
X280145Y120802D01*
X280092Y120724D01*
X280043Y120644D01*
X279997Y120561D01*
X279954Y120477D01*
X279915Y120391D01*
X279879Y120304D01*
X279847Y120215D01*
X279819Y120125D01*
X279794Y120034D01*
X279773Y119942D01*
X279756Y119849D01*
X279742Y119756D01*
X279733Y119662D01*
X279727Y119567D01*
X279725Y119473D01*
X279725Y117159D01*
X553339Y111441D02*
X553339Y109127D01*
X553341Y109034D01*
X553347Y108941D01*
X553356Y108848D01*
X553369Y108756D01*
X553386Y108664D01*
X553406Y108573D01*
X553430Y108483D01*
X553458Y108394D01*
X553489Y108306D01*
X553524Y108220D01*
X553562Y108135D01*
X553604Y108052D01*
X553649Y107970D01*
X553697Y107890D01*
X553749Y107812D01*
X553803Y107737D01*
X553861Y107664D01*
X553921Y107593D01*
X553984Y107524D01*
X554050Y107458D01*
X554119Y107395D01*
X554190Y107335D01*
X554263Y107277D01*
X554338Y107223D01*
X554416Y107171D01*
X554496Y107123D01*
X554578Y107078D01*
X554661Y107036D01*
X554746Y106998D01*
X554832Y106963D01*
X554920Y106932D01*
X555009Y106904D01*
X555099Y106880D01*
X555190Y106860D01*
X555282Y106843D01*
X555374Y106830D01*
X555467Y106821D01*
X555560Y106815D01*
X555653Y106813D01*
X561439Y106813D01*
X561535Y106815D01*
X561630Y106821D01*
X561725Y106831D01*
X561820Y106845D01*
X561914Y106862D01*
X562007Y106884D01*
X562099Y106909D01*
X562190Y106938D01*
X562280Y106971D01*
X562369Y107008D01*
X562455Y107048D01*
X562540Y107092D01*
X562623Y107139D01*
X562705Y107190D01*
X562784Y107244D01*
X562860Y107301D01*
X562935Y107361D01*
X563006Y107425D01*
X563075Y107491D01*
X563141Y107560D01*
X563205Y107631D01*
X563265Y107706D01*
X563322Y107782D01*
X563376Y107861D01*
X563427Y107942D01*
X563474Y108026D01*
X563518Y108111D01*
X563558Y108197D01*
X563595Y108286D01*
X563628Y108376D01*
X563657Y108467D01*
X563682Y108559D01*
X563704Y108652D01*
X563721Y108746D01*
X563735Y108841D01*
X563745Y108936D01*
X563751Y109031D01*
X563753Y109127D01*
X563753Y111441D01*
X563754Y119184D02*
X563752Y119284D01*
X563746Y119383D01*
X563737Y119483D01*
X563723Y119581D01*
X563706Y119680D01*
X563686Y119777D01*
X563661Y119874D01*
X563633Y119970D01*
X563601Y120064D01*
X563565Y120157D01*
X563526Y120249D01*
X563484Y120339D01*
X563438Y120428D01*
X563388Y120515D01*
X563336Y120599D01*
X563280Y120682D01*
X563221Y120763D01*
X563159Y120841D01*
X563094Y120917D01*
X563026Y120990D01*
X562956Y121060D01*
X562883Y121128D01*
X562807Y121193D01*
X562729Y121255D01*
X562648Y121314D01*
X562565Y121370D01*
X562481Y121422D01*
X562394Y121472D01*
X562305Y121518D01*
X562215Y121560D01*
X562123Y121599D01*
X562030Y121635D01*
X561936Y121667D01*
X561840Y121695D01*
X561743Y121720D01*
X561646Y121740D01*
X561547Y121757D01*
X561449Y121771D01*
X561349Y121780D01*
X561250Y121786D01*
X561150Y121788D01*
X563753Y119184D02*
X563751Y119070D01*
X563745Y118957D01*
X563736Y118844D01*
X563722Y118731D01*
X563705Y118618D01*
X563684Y118507D01*
X563659Y118396D01*
X563630Y118286D01*
X563598Y118177D01*
X563562Y118069D01*
X563522Y117962D01*
X563479Y117857D01*
X563432Y117754D01*
X563381Y117652D01*
X563328Y117552D01*
X563270Y117453D01*
X563210Y117357D01*
X563146Y117263D01*
X563079Y117171D01*
X563009Y117081D01*
X562936Y116994D01*
X562861Y116909D01*
X562782Y116827D01*
X562700Y116748D01*
X562616Y116672D01*
X562530Y116598D01*
X562441Y116527D01*
X562349Y116460D01*
X562255Y116395D01*
X562160Y116334D01*
X562062Y116276D01*
X561962Y116222D01*
X561860Y116171D01*
X561757Y116123D01*
X561652Y116079D01*
X561546Y116039D01*
X561439Y116002D01*
X559125Y120920D02*
X559197Y120993D01*
X559272Y121064D01*
X559350Y121131D01*
X559430Y121196D01*
X559512Y121258D01*
X559596Y121317D01*
X559683Y121372D01*
X559772Y121425D01*
X559862Y121474D01*
X559954Y121520D01*
X560048Y121562D01*
X560144Y121601D01*
X560240Y121636D01*
X560338Y121668D01*
X560437Y121696D01*
X560537Y121720D01*
X560638Y121741D01*
X560740Y121758D01*
X560842Y121771D01*
X560944Y121780D01*
X561047Y121786D01*
X561150Y121788D01*
X559125Y120919D02*
X553339Y116002D01*
X553339Y121787D01*
X826389Y111441D02*
X826389Y109127D01*
X826391Y109034D01*
X826397Y108941D01*
X826406Y108848D01*
X826419Y108756D01*
X826436Y108664D01*
X826456Y108573D01*
X826480Y108483D01*
X826508Y108394D01*
X826539Y108306D01*
X826574Y108220D01*
X826612Y108135D01*
X826654Y108052D01*
X826699Y107970D01*
X826747Y107890D01*
X826799Y107812D01*
X826853Y107737D01*
X826911Y107664D01*
X826971Y107593D01*
X827034Y107524D01*
X827100Y107458D01*
X827169Y107395D01*
X827240Y107335D01*
X827313Y107277D01*
X827388Y107223D01*
X827466Y107171D01*
X827546Y107123D01*
X827628Y107078D01*
X827711Y107036D01*
X827796Y106998D01*
X827882Y106963D01*
X827970Y106932D01*
X828059Y106904D01*
X828149Y106880D01*
X828240Y106860D01*
X828332Y106843D01*
X828424Y106830D01*
X828517Y106821D01*
X828610Y106815D01*
X828703Y106813D01*
X834489Y106813D01*
X834585Y106815D01*
X834680Y106821D01*
X834775Y106831D01*
X834870Y106845D01*
X834964Y106862D01*
X835057Y106884D01*
X835149Y106909D01*
X835240Y106938D01*
X835330Y106971D01*
X835419Y107008D01*
X835505Y107048D01*
X835590Y107092D01*
X835673Y107139D01*
X835755Y107190D01*
X835834Y107244D01*
X835910Y107301D01*
X835985Y107361D01*
X836056Y107425D01*
X836125Y107491D01*
X836191Y107560D01*
X836255Y107631D01*
X836315Y107706D01*
X836372Y107782D01*
X836426Y107861D01*
X836477Y107942D01*
X836524Y108026D01*
X836568Y108111D01*
X836608Y108197D01*
X836645Y108286D01*
X836678Y108376D01*
X836707Y108467D01*
X836732Y108559D01*
X836754Y108652D01*
X836771Y108746D01*
X836785Y108841D01*
X836795Y108936D01*
X836801Y109031D01*
X836803Y109127D01*
X836803Y111441D01*
X834489Y116002D02*
X836803Y118894D01*
X826389Y118894D01*
X826389Y116002D02*
X826389Y121787D01*
M02*
