G04 EAGLE Gerber RS-274X export*
G75*
%MOMM*%
%FSLAX34Y34*%
%LPD*%
%INSolderpaste Bottom*%
%IPPOS*%
%AMOC8*
5,1,8,0,0,1.08239X$1,22.5*%
G01*
%ADD10R,0.635000X2.413000*%
%ADD11R,1.800000X1.600000*%


D10*
X787400Y153162D03*
X774700Y153162D03*
X762000Y153162D03*
X749300Y153162D03*
X736600Y153162D03*
X647700Y153162D03*
X660400Y153162D03*
X673100Y153162D03*
X685800Y153162D03*
X647700Y75438D03*
X660400Y75438D03*
X673100Y75438D03*
X685800Y75438D03*
X736600Y75438D03*
X749300Y75438D03*
X762000Y75438D03*
X774700Y75438D03*
X787400Y75438D03*
X635000Y153162D03*
X635000Y75438D03*
X723900Y153162D03*
X723900Y75438D03*
X698500Y153162D03*
X698500Y75438D03*
X234950Y153162D03*
X222250Y153162D03*
X209550Y153162D03*
X196850Y153162D03*
X184150Y153162D03*
X95250Y153162D03*
X107950Y153162D03*
X120650Y153162D03*
X133350Y153162D03*
X95250Y75438D03*
X107950Y75438D03*
X120650Y75438D03*
X133350Y75438D03*
X184150Y75438D03*
X196850Y75438D03*
X209550Y75438D03*
X222250Y75438D03*
X234950Y75438D03*
X82550Y153162D03*
X82550Y75438D03*
X514350Y153162D03*
X501650Y153162D03*
X488950Y153162D03*
X476250Y153162D03*
X463550Y153162D03*
X374650Y153162D03*
X387350Y153162D03*
X400050Y153162D03*
X412750Y153162D03*
X374650Y75438D03*
X387350Y75438D03*
X400050Y75438D03*
X412750Y75438D03*
X463550Y75438D03*
X476250Y75438D03*
X488950Y75438D03*
X501650Y75438D03*
X514350Y75438D03*
X361950Y153162D03*
X361950Y75438D03*
X450850Y153162D03*
X450850Y75438D03*
X425450Y153162D03*
X425450Y75438D03*
D11*
X260350Y100300D03*
X260350Y128300D03*
X539750Y100300D03*
X539750Y128300D03*
X812800Y100300D03*
X812800Y128300D03*
M02*
